<?xml version="1.0" encoding="UTF-8" standalone="no"?>
<svg
   xmlns:dc="http://purl.org/dc/elements/1.1/"
   xmlns:cc="http://creativecommons.org/ns#"
   xmlns:rdf="http://www.w3.org/1999/02/22-rdf-syntax-ns#"
   xmlns:svg="http://www.w3.org/2000/svg"
   xmlns="http://www.w3.org/2000/svg"
   viewBox="0 0 680.18665 244.53333"
   height="244.53333"
   width="680.18665"
   xml:space="preserve"
   id="svg2"
   version="1.1"><metadata
     id="metadata8"><rdf:RDF><cc:Work
         rdf:about=""><dc:format>image/svg+xml</dc:format><dc:type
           rdf:resource="http://purl.org/dc/dcmitype/StillImage" /></cc:Work></rdf:RDF></metadata><defs
     id="defs6" /><g
     transform="matrix(1.3333333,0,0,-1.3333333,0,244.53333)"
     id="g10"><g
       transform="scale(0.1)"
       id="g12"><path
         id="path14"
         style="fill:#00adef;fill-opacity:1;fill-rule:nonzero;stroke:none"
         d="m 214.184,1315.73 h 83.714 c 133.375,0 152.856,108.06 152.856,173.3 0,43.82 -13.645,165.52 -168.43,165.52 h -68.14 V 1315.73 Z M 0,1832.73 h 351.465 c 231.687,0 313.5,-171.37 313.5,-346.6 0,-213.22 -112.961,-348.54 -355.395,-348.54 H 0 v 695.14 0" /><path
         id="path16"
         style="fill:#00adef;fill-opacity:1;fill-rule:nonzero;stroke:none"
         d="M 719.461,1642.86 H 912.23 V 1137.59 H 719.461 v 505.27 z m 192.769,54.52 H 719.461 v 135.35 H 912.23 v -135.35 0" /><path
         id="path18"
         style="fill:#00adef;fill-opacity:1;fill-rule:nonzero;stroke:none"
         d="m 1305.54,1364.45 c -23.39,-11.7 -49.63,-18.52 -75.95,-24.37 -42.82,-9.72 -65.24,-20.44 -65.24,-54.5 0,-23.38 25.32,-46.74 60.38,-46.74 43.82,0 77.9,26.29 80.81,78.85 v 46.76 z M 1490.5,1250.5 c 0,-37.94 1.98,-80.79 23.39,-112.91 h -196.68 c -4.83,13.62 -7.76,34.05 -6.81,47.7 h -1.93 c -40.89,-46.75 -100.29,-60.38 -162.6,-60.38 -97.34,0 -178.147,46.73 -178.147,152.89 0,159.64 186.887,153.78 285.257,172.29 26.27,4.88 52.56,12.67 52.56,44.8 0,34.08 -32.13,46.72 -63.28,46.72 -59.4,0 -71.07,-30.17 -72.07,-51.58 H 991.063 c 5.839,142.14 140.207,165.5 259.937,165.5 241.48,0 239.5,-100.26 239.5,-197.65 v -207.38 0" /><path
         id="path20"
         style="fill:#00adef;fill-opacity:1;fill-rule:nonzero;stroke:none"
         d="m 1567.41,1832.73 h 192.77 v -335.92 l 122.66,146.05 h 218.09 l -180.11,-190.82 208.35,-314.45 h -231.74 l -103.17,183.03 -34.08,-36.98 v -146.05 h -192.77 v 695.14 0" /><path
         id="path22"
         style="fill:#00adef;fill-opacity:1;fill-rule:nonzero;stroke:none"
         d="m 2378.39,1515.32 c -73,0 -82.74,-71.07 -82.74,-124.61 0,-53.56 9.74,-125.58 82.74,-125.58 73.02,0 82.74,72.02 82.74,125.58 0,53.54 -9.72,124.61 -82.74,124.61 z m 0,-390.41 c -189.87,0 -275.54,125.59 -275.54,265.8 0,140.19 85.67,264.82 275.54,264.82 189.85,0 275.51,-124.63 275.51,-264.82 0,-140.21 -85.66,-265.8 -275.51,-265.8 v 0" /><path
         id="path24"
         style="fill:#00adef;fill-opacity:1;fill-rule:nonzero;stroke:none"
         d="m 2713.28,1642.86 h 185.96 v -64.23 h 1.93 c 36.06,50.61 87.65,76.9 164.53,76.9 90.55,0 173.34,-55.49 173.34,-171.36 v -346.58 h -192.78 v 264.8 c 0,58.44 -6.81,99.31 -63.3,99.31 -33.08,0 -76.91,-16.56 -76.91,-97.37 v -266.74 h -192.77 v 505.27 0" /><path
         id="path26"
         style="fill:#00adef;fill-opacity:1;fill-rule:nonzero;stroke:none"
         d="m 3315.94,1642.86 h 192.8 v -505.27 h -192.8 v 505.27 z m 192.8,54.52 h -192.8 v 135.35 h 192.8 v -135.35 0" /><path
         id="path28"
         style="fill:#00adef;fill-opacity:1;fill-rule:nonzero;stroke:none"
         d="m 3927.37,1447.18 c 0,46.73 -35.11,84.7 -84.77,84.7 -57.42,0 -90.5,-30.18 -99.29,-84.7 h 184.06 z m -184.99,-100.29 c 4.79,-57.42 37.92,-98.34 98.27,-98.34 31.15,0 65.28,11.7 80.91,36.04 h 180.03 c -38.97,-109.04 -145.07,-159.68 -259.97,-159.68 -161.59,0 -283.27,95.44 -283.27,263.85 0,147.02 107.03,266.77 266.77,266.77 200.54,0 287.21,-111.96 287.21,-308.64 h -369.95 v 0" /><path
         id="path30"
         style="fill:#00adef;fill-opacity:1;fill-rule:nonzero;stroke:none"
         d="m 4629.95,1515.3 c -52.44,0 -95.7,40.89 -95.7,89.91 0,51.15 43.26,91.7 95.7,91.7 52.74,0 95.22,-40.55 95.22,-91.7 v -89.91 h -95.22 v 0 0" /><path
         id="path32"
         style="fill:#00adef;fill-opacity:1;fill-rule:nonzero;stroke:none"
         d="m 4725.17,1834.05 h -318.85 v -318.9 h 107.23 c -21.58,24.37 -34.38,56.57 -34.38,89.94 0,80.74 67.58,145.27 150.78,145.27 35.94,0 68.75,-11.87 95.22,-31.93 v 115.62 0" /><path
         id="path34"
         style="fill:#00adef;fill-opacity:1;fill-rule:nonzero;stroke:none"
         d="m 4878,1515.3 c 53.32,0 95.41,40.89 95.41,89.91 0,51.15 -42.09,91.7 -95.41,91.7 -52.25,0 -94.92,-40.55 -94.92,-91.7 V 1515.3 H 4878 v 0 0" /><path
         id="path36"
         style="fill:#00adef;fill-opacity:1;fill-rule:nonzero;stroke:none"
         d="m 4782.59,1834.05 h 318.85 v -318.9 H 4994.8 c 20.99,24.37 33.4,56.57 33.4,89.94 0,80.74 -67.19,145.27 -150.39,145.27 -35.75,0 -68.85,-11.87 -95.22,-31.93 v 115.62 0" /><path
         id="path38"
         style="fill:#00adef;fill-opacity:1;fill-rule:nonzero;stroke:none"
         d="m 4406.32,1457.29 h 318.85 v -318.92 h -318.85 v 318.92 0" /><path
         id="path40"
         style="fill:#00adef;fill-opacity:1;fill-rule:nonzero;stroke:none"
         d="m 4782.59,1457.29 h 318.85 v -318.92 h -318.85 v 318.92 0" /><path
         id="path42"
         style="fill:#542791;fill-opacity:1;fill-rule:nonzero;stroke:none"
         d="m 3583.5,648.48 h -71.36 v -66.011 h -0.89 c -13.69,25.562 -32.71,44.742 -57.09,57.543 -24.39,12.777 -51.15,19.179 -80.28,19.179 -39.85,0 -73.45,-7.589 -100.8,-22.75 -27.35,-15.16 -49.36,-34.652 -66,-58.429 -16.66,-23.793 -28.55,-49.953 -35.68,-78.492 -7.14,-28.551 -10.71,-56.508 -10.71,-83.848 0,-31.531 4.31,-61.41 12.94,-89.652 8.61,-28.25 21.54,-53.071 38.8,-74.481 17.24,-21.41 38.65,-38.348 64.22,-50.84 25.56,-12.488 55.6,-18.73 90.09,-18.73 14.28,0 28.69,1.781 43.27,5.351 14.56,3.571 28.23,8.762 41.03,15.61 12.78,6.832 24.22,15.449 34.34,25.859 10.11,10.402 18.43,22.75 24.98,37.02 h 1.78 v -30.321 c 0,-26.179 -2.54,-49.957 -7.58,-71.359 -5.06,-21.41 -13.24,-39.699 -24.53,-54.859 -11.3,-15.1684 -25.58,-27.0512 -42.82,-35.6802 -17.25,-8.621 -38.35,-12.9414 -63.33,-12.9414 -12.49,0 -25.57,1.3399 -39.25,4.0235 -13.68,2.6679 -26.31,6.9883 -37.91,12.9297 -11.59,5.9492 -21.41,13.6875 -29.43,23.1874 -8.03,9.52 -12.35,21.121 -12.94,34.793 h -75.82 c 1.19,-24.973 7.72,-46.082 19.63,-63.332 11.89,-17.2383 26.9,-31.2187 45.04,-41.918 18.14,-10.7109 38.36,-18.4336 60.66,-23.20309 C 3326.16,2.37891 3348.01,0 3369.42,0 c 73.14,0 127.11,18.8789 161.9,56.6406 34.79,37.7696 52.18,94.4104 52.18,169.9294 V 648.48 Z M 3308.76,264.469 c -16.65,10.402 -30.03,24.09 -40.14,41.043 -10.11,16.949 -17.25,35.82 -21.4,56.636 -4.17,20.813 -6.25,41.622 -6.25,62.442 0,21.992 2.53,43.109 7.58,63.332 5.05,20.207 13.08,38.047 24.09,53.519 11,15.457 25.11,27.789 42.37,37.02 17.24,9.211 38.05,13.82 62.44,13.82 23.78,0 44,-4.761 60.65,-14.269 16.65,-9.524 30.18,-22.16 40.59,-37.91 10.4,-15.762 17.98,-33.454 22.75,-53.071 4.75,-19.621 7.13,-39.551 7.13,-59.761 0,-21.411 -2.53,-42.821 -7.58,-64.231 -5.06,-21.41 -12.93,-40.578 -23.64,-57.527 -10.7,-16.953 -24.83,-30.641 -42.37,-41.043 -17.54,-10.41 -38.8,-15.598 -63.78,-15.598 -24.97,0 -45.79,5.188 -62.44,15.598 z M 2889.8,187.32 h 75.82 v 205.16 c 0,29.129 2.97,55.301 8.92,78.489 5.94,23.203 15.46,42.82 28.54,58.883 13.08,16.046 30.33,28.23 51.74,36.57 21.41,8.316 47.28,12.488 77.6,12.488 v 80.281 c -41.03,1.18 -74.92,-7.14 -101.69,-24.98 -26.75,-17.84 -49.36,-45.492 -67.79,-82.961 h -1.78 v 97.23 H 2889.8 V 187.32 Z m -109.45,461.16 h -75.82 V 388.02 c 0,-20.829 -2.83,-40 -8.47,-57.54 -5.66,-17.539 -14.14,-32.859 -25.42,-45.929 -11.31,-13.09 -25.43,-23.199 -42.37,-30.332 -16.95,-7.141 -37.02,-10.707 -60.21,-10.707 -29.15,0 -52.05,8.32 -68.69,24.976 -16.65,16.641 -24.97,39.25 -24.97,67.793 V 648.48 h -75.82 V 345.199 c 0,-24.969 2.52,-47.719 7.58,-68.238 5.04,-20.512 13.82,-38.211 26.31,-53.07 12.49,-14.871 28.84,-26.469 49.06,-34.789 20.21,-8.321 45.49,-12.493 75.82,-12.493 33.3,0 62.58,6.852 87.86,20.52 25.27,13.672 45.94,34.793 62,63.332 h 1.78 V 187.32 h 71.36 V 648.48 Z M 1875.7,187.32 h 75.82 v 61.551 h 1.78 c 8.32,-13.691 18.58,-25.133 30.78,-34.351 12.18,-9.219 25.11,-16.649 38.8,-22.301 13.67,-5.637 27.34,-9.66 41.03,-12.039 13.67,-2.371 26.45,-3.571 38.36,-3.571 35.08,0 65.85,6.403 92.32,19.18 26.45,12.781 48.46,30.02 66.01,51.742 17.53,21.699 30.62,47.117 39.24,76.258 8.62,29.133 12.94,60.063 12.94,92.77 0,32.703 -4.46,63.632 -13.38,92.773 -8.92,29.129 -22.16,54.859 -39.7,77.156 -17.54,22.301 -39.55,39.981 -66,53.071 -26.47,13.082 -57.54,19.632 -93.22,19.632 -32.11,0 -61.55,-5.8 -88.31,-17.402 -26.76,-11.59 -46.38,-30.187 -58.87,-55.75 h -1.78 V 824.211 H 1875.7 V 187.32 Z m 349.66,168.59 c -4.77,-21.41 -12.49,-40.449 -23.19,-57.09 -10.7,-16.66 -24.98,-30.039 -42.82,-40.14 -17.84,-10.121 -39.55,-15.168 -65.11,-15.168 -26.18,0 -48.48,4.91 -66.9,14.718 -18.44,9.809 -33.45,22.75 -45.05,38.801 -11.59,16.059 -20.07,34.641 -25.42,55.75 -5.35,21.11 -8.03,42.957 -8.03,65.571 0,21.398 2.52,42.5 7.58,63.328 5.05,20.808 13.23,39.379 24.53,55.75 11.29,16.351 25.87,29.57 43.71,39.691 17.84,10.109 39.54,15.16 65.12,15.16 24.37,0 45.63,-4.761 63.78,-14.269 18.13,-9.524 33,-22.301 44.6,-38.352 11.59,-16.058 20.2,-34.34 25.86,-54.859 5.65,-20.52 8.48,-41.481 8.48,-62.891 0,-22.601 -2.39,-44.601 -7.14,-66 z M 1116.79,187.32 h 75.82 v 287.219 c 0,8.922 2.23,20.07 6.69,33.449 4.46,13.383 11.59,26.321 21.41,38.801 9.81,12.492 22.43,23.199 37.91,32.121 15.45,8.922 34.48,13.371 57.08,13.371 16.64,0 30.62,-2.531 41.93,-7.582 11.29,-5.058 20.21,-12.187 26.76,-21.398 6.53,-9.231 11.15,-20.082 13.82,-32.563 2.68,-12.488 4.02,-26.179 4.02,-41.027 V 187.32 h 75.82 v 287.219 c 0,35.68 10.84,64.231 32.56,85.633 21.7,21.41 50.98,32.109 87.86,32.109 18.42,0 33.45,-2.672 45.04,-8.019 11.6,-5.352 20.66,-12.641 27.21,-21.864 6.54,-9.218 11,-20.066 13.38,-32.546 2.37,-12.493 3.57,-25.872 3.57,-40.141 V 187.32 h 75.82 v 338.071 c 0,23.769 -3.72,44.148 -11.15,61.097 -7.45,16.953 -17.84,30.774 -31.22,41.473 -13.38,10.711 -29.44,18.578 -48.17,23.641 -18.73,5.046 -39.69,7.589 -62.89,7.589 -29.74,0 -57.39,-6.851 -82.95,-20.519 -25.58,-13.692 -46.09,-33 -61.55,-57.981 -9.52,28.539 -25.87,48.75 -49.06,60.661 -23.19,11.878 -49.06,17.839 -77.6,17.839 -64.83,0 -114.49,-26.179 -148.97,-78.5 h -1.78 v 67.789 h -71.36 V 187.32 Z m -71.08,60.649 c -8.34,-2.981 -16.06,-4.457 -23.2,-4.457 -11.9,0 -18.88,4.16 -20.96,12.488 -2.085,8.32 -3.116,21.41 -3.116,39.25 v 237.27 c 0,26.761 -5.059,48.46 -15.161,65.121 -10.121,16.64 -23.503,29.57 -40.144,38.8 -16.656,9.207 -35.234,15.297 -55.75,18.289 -20.516,2.961 -41.184,4.461 -61.992,4.461 -25.578,0 -49.953,-2.679 -73.145,-8.031 -23.191,-5.351 -43.707,-14.14 -61.547,-26.32 -17.84,-12.192 -32.113,-28.09 -42.816,-47.719 -10.703,-19.621 -16.656,-43.711 -17.84,-72.25 h 75.82 c 1.782,33.899 13.379,56.93 34.786,69.129 21.41,12.18 48.168,18.281 80.281,18.281 11.887,0 23.929,-0.89 36.125,-2.672 12.183,-1.777 23.191,-5.347 33.004,-10.699 9.812,-5.359 17.84,-13.09 24.086,-23.199 6.242,-10.121 9.367,-23.492 9.367,-40.141 0,-14.269 -4.168,-25.129 -12.488,-32.558 -8.336,-7.442 -19.625,-13.082 -33.899,-16.942 -14.269,-3.879 -30.773,-6.851 -49.504,-8.922 -18.734,-2.089 -38.512,-5.218 -59.32,-9.367 -19.621,-3.57 -38.801,-8.179 -57.531,-13.832 -18.735,-5.648 -35.391,-13.527 -49.953,-23.629 -14.579,-10.121 -26.317,-23.5 -35.235,-40.14 -8.922,-16.66 -13.379,-38.071 -13.379,-64.231 0,-23.187 4.012,-42.969 12.039,-59.308 8.032,-16.371 18.871,-29.75 32.559,-40.141 13.672,-10.418 29.883,-18 48.613,-22.75 18.735,-4.75 38.496,-7.141 59.32,-7.141 32.114,0 61.993,5.661 89.645,16.95 27.652,11.293 51.875,29.441 72.699,54.41 0,-24.969 5.797,-43.117 17.395,-54.41 11.594,-11.289 27.203,-16.95 46.824,-16.95 22.597,0 40.727,4.172 54.417,12.493 v 58.867 z m -123.097,99.91 c 0,-10.707 -2.675,-22.16 -8.027,-34.348 -5.352,-12.191 -13.688,-23.492 -24.977,-33.89 -11.304,-10.411 -25.867,-19.039 -43.707,-25.871 -17.839,-6.84 -39.25,-10.258 -64.222,-10.258 -11.907,0 -23.196,1.187 -33.899,3.566 -10.703,2.371 -20.07,6.242 -28.097,11.602 -8.028,5.351 -14.579,12.332 -19.625,20.961 -5.059,8.609 -7.582,19.179 -7.582,31.668 0,14.273 2.523,26.16 7.582,35.679 5.046,9.5 11.738,17.391 20.07,23.633 8.32,6.25 18.133,11.149 29.437,14.719 11.289,3.57 23.192,6.539 35.68,8.922 12.488,2.367 25.422,4.308 38.801,5.797 13.383,1.48 26.008,3.261 37.91,5.351 11.891,2.078 23.191,4.602 33.898,7.578 10.704,2.973 19.622,7.141 26.758,12.492 V 347.879 Z M 8.41797,187.32 H 93.1563 V 479 H 428.551 V 187.32 h 84.738 V 824.211 H 428.551 V 550.359 H 93.1563 V 824.211 H 8.41797 v -636.891 0" /></g></g></svg>