<svg width="1505" height="970" viewBox="0 0 1505 970" fill="none" xmlns="http://www.w3.org/2000/svg">
<rect width="1505" height="970" fill="#121821"/>
<mask id="path-2-outside-1_9_188" maskUnits="userSpaceOnUse" x="457" y="322" width="594" height="355" fill="black">
<rect fill="white" x="457" y="322" width="594" height="355"/>
<path d="M594.077 337.724V467H564.787L518.076 399.079H517.319V467H482.222V337.724H512.017L557.97 405.392H558.98V337.724H594.077ZM657.894 468.767C647.374 468.767 638.368 466.684 630.877 462.518C623.387 458.31 617.643 452.461 613.645 444.97C609.647 437.437 607.648 428.705 607.648 418.774C607.648 408.843 609.647 400.132 613.645 392.641C617.643 385.108 623.387 379.259 630.877 375.093C638.368 370.884 647.374 368.78 657.894 368.78C668.415 368.78 677.42 370.884 684.911 375.093C692.401 379.259 698.146 385.108 702.144 392.641C706.141 400.132 708.14 408.843 708.14 418.774C708.14 428.705 706.141 437.437 702.144 444.97C698.146 452.461 692.401 458.31 684.911 462.518C677.42 466.684 668.415 468.767 657.894 468.767ZM658.147 443.013C661.092 443.013 663.638 442.024 665.785 440.046C667.931 438.069 669.593 435.249 670.771 431.588C671.95 427.927 672.539 423.571 672.539 418.521C672.539 413.429 671.95 409.074 670.771 405.455C669.593 401.794 667.931 398.974 665.785 396.996C663.638 395.019 661.092 394.03 658.147 394.03C655.033 394.03 652.36 395.019 650.13 396.996C647.9 398.974 646.195 401.794 645.017 405.455C643.839 409.074 643.25 413.429 643.25 418.521C643.25 423.571 643.839 427.927 645.017 431.588C646.195 435.249 647.9 438.069 650.13 440.046C652.36 442.024 655.033 443.013 658.147 443.013ZM780.101 370.043V395.292H716.22V370.043H780.101ZM728.592 346.813H763.436V435.817C763.436 437.164 763.668 438.3 764.13 439.226C764.593 440.11 765.309 440.783 766.277 441.246C767.245 441.667 768.486 441.877 770.001 441.877C771.053 441.877 772.273 441.751 773.662 441.498C775.093 441.246 776.145 441.035 776.818 440.867L781.868 465.359C780.311 465.822 778.081 466.39 775.177 467.063C772.315 467.736 768.907 468.178 764.951 468.389C756.955 468.81 750.243 467.989 744.815 465.927C739.386 463.823 735.304 460.519 732.569 456.017C729.834 451.514 728.508 445.875 728.592 439.1V346.813ZM856.748 468.515C850.562 468.515 845.091 467.505 840.336 465.485C835.623 463.423 831.919 460.309 829.226 456.143C826.533 451.977 825.186 446.674 825.186 440.236C825.186 434.933 826.091 430.41 827.901 426.664C829.71 422.877 832.235 419.784 835.475 417.385C838.716 414.987 842.482 413.156 846.774 411.893C851.109 410.631 855.78 409.81 860.788 409.432C866.216 409.011 870.572 408.506 873.854 407.917C877.179 407.285 879.577 406.423 881.05 405.329C882.523 404.192 883.26 402.699 883.26 400.847V400.594C883.26 398.069 882.292 396.134 880.356 394.787C878.42 393.44 875.937 392.767 872.907 392.767C869.583 392.767 866.869 393.504 864.765 394.976C862.703 396.407 861.461 398.617 861.04 401.604H828.974C829.395 395.713 831.267 390.284 834.592 385.319C837.958 380.311 842.861 376.313 849.299 373.325C855.738 370.295 863.776 368.78 873.412 368.78C880.356 368.78 886.584 369.601 892.097 371.242C897.61 372.841 902.302 375.093 906.173 377.996C910.045 380.858 912.991 384.224 915.011 388.096C917.073 391.926 918.104 396.092 918.104 400.594V467H885.532V453.365H884.775C882.839 456.984 880.482 459.909 877.705 462.14C874.969 464.37 871.834 465.99 868.299 467C864.807 468.01 860.956 468.515 856.748 468.515ZM868.11 446.548C870.761 446.548 873.244 446.001 875.559 444.907C877.915 443.813 879.83 442.235 881.303 440.173C882.776 438.111 883.512 435.607 883.512 432.661V424.581C882.586 424.96 881.597 425.318 880.545 425.654C879.535 425.991 878.441 426.307 877.263 426.601C876.127 426.896 874.906 427.169 873.602 427.422C872.339 427.674 871.014 427.906 869.625 428.116C866.932 428.537 864.722 429.231 862.997 430.199C861.314 431.125 860.051 432.282 859.21 433.671C858.41 435.018 858.01 436.533 858.01 438.216C858.01 440.909 858.957 442.971 860.851 444.402C862.745 445.833 865.164 446.548 868.11 446.548ZM969.596 337.724V467H934.752V337.724H969.596ZM1022.19 337.724V467H987.35V337.724H1022.19ZM472.44 633V533.35H515.453C522.849 533.35 529.32 534.809 534.867 537.729C540.414 540.648 544.729 544.752 547.81 550.039C550.892 555.326 552.433 561.506 552.433 568.578C552.433 575.714 550.843 581.893 547.664 587.116C544.518 592.339 540.09 596.361 534.381 599.183C528.704 602.005 522.07 603.416 514.48 603.416H488.789V582.396H509.03C512.209 582.396 514.918 581.845 517.156 580.742C519.427 579.607 521.162 578.001 522.362 575.925C523.595 573.849 524.211 571.4 524.211 568.578C524.211 565.723 523.595 563.29 522.362 561.279C521.162 559.235 519.427 557.678 517.156 556.608C514.918 555.505 512.209 554.953 509.03 554.953H499.493V633H472.44ZM562.748 633V558.262H588.829V572.47H589.607C590.969 567.215 593.127 563.371 596.078 560.938C599.063 558.505 602.55 557.289 606.54 557.289C607.708 557.289 608.859 557.386 609.995 557.581C611.162 557.743 612.281 557.986 613.352 558.311V581.228C612.022 580.774 610.384 580.434 608.437 580.207C606.491 579.98 604.821 579.866 603.426 579.866C600.798 579.866 598.43 580.466 596.322 581.666C594.246 582.834 592.608 584.489 591.407 586.629C590.207 588.738 589.607 591.219 589.607 594.074V633H562.748ZM653.884 634.362C645.774 634.362 638.832 632.757 633.058 629.545C627.284 626.301 622.856 621.793 619.775 616.019C616.693 610.212 615.152 603.481 615.152 595.826C615.152 588.17 616.693 581.456 619.775 575.682C622.856 569.875 627.284 565.366 633.058 562.155C638.832 558.911 645.774 557.289 653.884 557.289C661.993 557.289 668.935 558.911 674.709 562.155C680.483 565.366 684.911 569.875 687.992 575.682C691.074 581.456 692.615 588.17 692.615 595.826C692.615 603.481 691.074 610.212 687.992 616.019C684.911 621.793 680.483 626.301 674.709 629.545C668.935 632.757 661.993 634.362 653.884 634.362ZM654.078 614.51C656.349 614.51 658.311 613.748 659.966 612.223C661.62 610.699 662.901 608.525 663.81 605.703C664.718 602.881 665.172 599.524 665.172 595.631C665.172 591.706 664.718 588.349 663.81 585.559C662.901 582.737 661.62 580.563 659.966 579.039C658.311 577.514 656.349 576.752 654.078 576.752C651.678 576.752 649.618 577.514 647.899 579.039C646.179 580.563 644.866 582.737 643.957 585.559C643.049 588.349 642.595 591.706 642.595 595.631C642.595 599.524 643.049 602.881 643.957 605.703C644.866 608.525 646.179 610.699 647.899 612.223C649.618 613.748 651.678 614.51 654.078 614.51ZM703.514 558.262H730.373V635.53C730.373 642.083 728.994 647.208 726.237 650.906C723.512 654.604 719.685 657.215 714.754 658.74C709.823 660.264 704.066 661.027 697.481 661.027C696.507 661.027 695.615 661.01 694.804 660.978C693.961 660.946 693.037 660.897 692.031 660.832V640.98C692.68 641.045 693.247 641.093 693.734 641.126C694.188 641.158 694.658 641.174 695.145 641.174C698.356 641.174 700.546 640.672 701.714 639.666C702.914 638.693 703.514 637.12 703.514 634.946V558.262ZM716.944 550.477C713.31 550.477 710.196 549.277 707.601 546.876C705.006 544.476 703.709 541.589 703.709 538.215C703.709 534.842 705.006 531.955 707.601 529.554C710.196 527.154 713.31 525.954 716.944 525.954C720.609 525.954 723.723 527.154 726.286 529.554C728.881 531.955 730.178 534.842 730.178 538.215C730.178 541.589 728.881 544.476 726.286 546.876C723.723 549.277 720.609 550.477 716.944 550.477ZM779.87 634.362C771.89 634.362 765.013 632.838 759.239 629.789C753.497 626.707 749.07 622.295 745.956 616.554C742.874 610.78 741.333 603.87 741.333 595.826C741.333 588.105 742.89 581.358 746.004 575.584C749.118 569.81 753.514 565.317 759.19 562.106C764.867 558.895 771.566 557.289 779.286 557.289C784.93 557.289 790.039 558.165 794.613 559.917C799.187 561.668 803.096 564.215 806.339 567.556C809.583 570.864 812.081 574.887 813.833 579.623C815.584 584.359 816.46 589.695 816.46 595.631V601.859H749.702V587.067H791.742C791.71 584.926 791.158 583.045 790.088 581.423C789.05 579.769 787.639 578.487 785.855 577.579C784.103 576.638 782.108 576.168 779.87 576.168C777.696 576.168 775.701 576.638 773.885 577.579C772.068 578.487 770.609 579.753 769.506 581.374C768.435 582.996 767.868 584.894 767.803 587.067V603.027C767.803 605.427 768.306 607.568 769.311 609.45C770.317 611.331 771.76 612.807 773.642 613.878C775.523 614.948 777.794 615.483 780.454 615.483C782.303 615.483 783.989 615.224 785.514 614.705C787.071 614.186 788.401 613.44 789.504 612.467C790.607 611.461 791.418 610.261 791.937 608.866H816.46C815.617 614.056 813.622 618.565 810.475 622.393C807.329 626.188 803.16 629.14 797.97 631.248C792.813 633.324 786.779 634.362 779.87 634.362ZM863.427 634.362C855.317 634.362 848.375 632.757 842.601 629.545C836.827 626.301 832.4 621.793 829.318 616.019C826.236 610.212 824.695 603.481 824.695 595.826C824.695 588.17 826.236 581.456 829.318 575.682C832.4 569.875 836.827 565.366 842.601 562.155C848.375 558.911 855.317 557.289 863.427 557.289C870.758 557.289 877.1 558.619 882.452 561.279C887.837 563.906 892.005 567.637 894.957 572.47C897.909 577.271 899.401 582.915 899.433 589.403H874.521C874.164 585.478 873.029 582.494 871.115 580.45C869.233 578.374 866.8 577.336 863.816 577.336C861.481 577.336 859.437 578.017 857.685 579.379C855.934 580.709 854.571 582.737 853.598 585.462C852.625 588.154 852.138 591.544 852.138 595.631C852.138 599.718 852.625 603.124 853.598 605.849C854.571 608.542 855.934 610.569 857.685 611.931C859.437 613.261 861.481 613.926 863.816 613.926C865.795 613.926 867.546 613.472 869.071 612.564C870.596 611.623 871.828 610.261 872.769 608.477C873.742 606.66 874.326 604.454 874.521 601.859H899.433C899.336 608.444 897.828 614.186 894.908 619.084C891.989 623.95 887.853 627.713 882.501 630.372C877.181 633.032 870.823 634.362 863.427 634.362ZM955.085 558.262V577.725H905.844V558.262H955.085ZM915.381 540.356H942.24V608.963C942.24 610.001 942.418 610.877 942.775 611.591C943.132 612.272 943.683 612.791 944.429 613.148C945.175 613.472 946.132 613.634 947.3 613.634C948.111 613.634 949.052 613.537 950.122 613.342C951.225 613.148 952.036 612.986 952.555 612.856L956.448 631.735C955.247 632.092 953.528 632.53 951.29 633.049C949.084 633.568 946.457 633.908 943.407 634.07C937.244 634.395 932.07 633.762 927.886 632.173C923.701 630.551 920.555 628.005 918.446 624.534C916.338 621.063 915.316 616.716 915.381 611.493V540.356ZM1033.56 582.591H1008.84C1008.71 581.066 1008.17 579.753 1007.23 578.65C1006.29 577.547 1005.08 576.703 1003.58 576.119C1002.12 575.503 1000.5 575.195 998.719 575.195C996.416 575.195 994.437 575.617 992.783 576.46C991.128 577.303 990.317 578.504 990.35 580.061C990.317 581.164 990.788 582.185 991.761 583.126C992.766 584.067 994.696 584.797 997.551 585.316L1012.73 588.041C1020.39 589.435 1026.08 591.787 1029.81 595.096C1033.57 598.372 1035.47 602.768 1035.5 608.282C1035.47 613.602 1033.88 618.224 1030.74 622.149C1027.62 626.042 1023.36 629.059 1017.94 631.2C1012.55 633.308 1006.41 634.362 999.497 634.362C988.079 634.362 979.142 632.027 972.687 627.356C966.264 622.685 962.68 616.521 961.934 608.866H988.598C988.955 611.234 990.123 613.067 992.101 614.364C994.113 615.629 996.643 616.262 999.692 616.262C1002.16 616.262 1004.18 615.84 1005.77 614.997C1007.4 614.153 1008.22 612.953 1008.26 611.396C1008.22 609.969 1007.51 608.833 1006.11 607.99C1004.75 607.147 1002.61 606.465 999.692 605.946L986.457 603.611C978.834 602.281 973.125 599.751 969.33 596.02C965.534 592.29 963.653 587.489 963.685 581.618C963.653 576.428 965.015 572.032 967.773 568.432C970.562 564.798 974.536 562.041 979.694 560.16C984.884 558.246 991.031 557.289 998.135 557.289C1008.94 557.289 1017.45 559.527 1023.68 564.004C1029.94 568.48 1033.23 574.676 1033.56 582.591Z"/>
</mask>
<path d="M594.077 337.724V467H564.787L518.076 399.079H517.319V467H482.222V337.724H512.017L557.97 405.392H558.98V337.724H594.077ZM657.894 468.767C647.374 468.767 638.368 466.684 630.877 462.518C623.387 458.31 617.643 452.461 613.645 444.97C609.647 437.437 607.648 428.705 607.648 418.774C607.648 408.843 609.647 400.132 613.645 392.641C617.643 385.108 623.387 379.259 630.877 375.093C638.368 370.884 647.374 368.78 657.894 368.78C668.415 368.78 677.42 370.884 684.911 375.093C692.401 379.259 698.146 385.108 702.144 392.641C706.141 400.132 708.14 408.843 708.14 418.774C708.14 428.705 706.141 437.437 702.144 444.97C698.146 452.461 692.401 458.31 684.911 462.518C677.42 466.684 668.415 468.767 657.894 468.767ZM658.147 443.013C661.092 443.013 663.638 442.024 665.785 440.046C667.931 438.069 669.593 435.249 670.771 431.588C671.95 427.927 672.539 423.571 672.539 418.521C672.539 413.429 671.95 409.074 670.771 405.455C669.593 401.794 667.931 398.974 665.785 396.996C663.638 395.019 661.092 394.03 658.147 394.03C655.033 394.03 652.36 395.019 650.13 396.996C647.9 398.974 646.195 401.794 645.017 405.455C643.839 409.074 643.25 413.429 643.25 418.521C643.25 423.571 643.839 427.927 645.017 431.588C646.195 435.249 647.9 438.069 650.13 440.046C652.36 442.024 655.033 443.013 658.147 443.013ZM780.101 370.043V395.292H716.22V370.043H780.101ZM728.592 346.813H763.436V435.817C763.436 437.164 763.668 438.3 764.13 439.226C764.593 440.11 765.309 440.783 766.277 441.246C767.245 441.667 768.486 441.877 770.001 441.877C771.053 441.877 772.273 441.751 773.662 441.498C775.093 441.246 776.145 441.035 776.818 440.867L781.868 465.359C780.311 465.822 778.081 466.39 775.177 467.063C772.315 467.736 768.907 468.178 764.951 468.389C756.955 468.81 750.243 467.989 744.815 465.927C739.386 463.823 735.304 460.519 732.569 456.017C729.834 451.514 728.508 445.875 728.592 439.1V346.813ZM856.748 468.515C850.562 468.515 845.091 467.505 840.336 465.485C835.623 463.423 831.919 460.309 829.226 456.143C826.533 451.977 825.186 446.674 825.186 440.236C825.186 434.933 826.091 430.41 827.901 426.664C829.71 422.877 832.235 419.784 835.475 417.385C838.716 414.987 842.482 413.156 846.774 411.893C851.109 410.631 855.78 409.81 860.788 409.432C866.216 409.011 870.572 408.506 873.854 407.917C877.179 407.285 879.577 406.423 881.05 405.329C882.523 404.192 883.26 402.699 883.26 400.847V400.594C883.26 398.069 882.292 396.134 880.356 394.787C878.42 393.44 875.937 392.767 872.907 392.767C869.583 392.767 866.869 393.504 864.765 394.976C862.703 396.407 861.461 398.617 861.04 401.604H828.974C829.395 395.713 831.267 390.284 834.592 385.319C837.958 380.311 842.861 376.313 849.299 373.325C855.738 370.295 863.776 368.78 873.412 368.78C880.356 368.78 886.584 369.601 892.097 371.242C897.61 372.841 902.302 375.093 906.173 377.996C910.045 380.858 912.991 384.224 915.011 388.096C917.073 391.926 918.104 396.092 918.104 400.594V467H885.532V453.365H884.775C882.839 456.984 880.482 459.909 877.705 462.14C874.969 464.37 871.834 465.99 868.299 467C864.807 468.01 860.956 468.515 856.748 468.515ZM868.11 446.548C870.761 446.548 873.244 446.001 875.559 444.907C877.915 443.813 879.83 442.235 881.303 440.173C882.776 438.111 883.512 435.607 883.512 432.661V424.581C882.586 424.96 881.597 425.318 880.545 425.654C879.535 425.991 878.441 426.307 877.263 426.601C876.127 426.896 874.906 427.169 873.602 427.422C872.339 427.674 871.014 427.906 869.625 428.116C866.932 428.537 864.722 429.231 862.997 430.199C861.314 431.125 860.051 432.282 859.21 433.671C858.41 435.018 858.01 436.533 858.01 438.216C858.01 440.909 858.957 442.971 860.851 444.402C862.745 445.833 865.164 446.548 868.11 446.548ZM969.596 337.724V467H934.752V337.724H969.596ZM1022.19 337.724V467H987.35V337.724H1022.19ZM472.44 633V533.35H515.453C522.849 533.35 529.32 534.809 534.867 537.729C540.414 540.648 544.729 544.752 547.81 550.039C550.892 555.326 552.433 561.506 552.433 568.578C552.433 575.714 550.843 581.893 547.664 587.116C544.518 592.339 540.09 596.361 534.381 599.183C528.704 602.005 522.07 603.416 514.48 603.416H488.789V582.396H509.03C512.209 582.396 514.918 581.845 517.156 580.742C519.427 579.607 521.162 578.001 522.362 575.925C523.595 573.849 524.211 571.4 524.211 568.578C524.211 565.723 523.595 563.29 522.362 561.279C521.162 559.235 519.427 557.678 517.156 556.608C514.918 555.505 512.209 554.953 509.03 554.953H499.493V633H472.44ZM562.748 633V558.262H588.829V572.47H589.607C590.969 567.215 593.127 563.371 596.078 560.938C599.063 558.505 602.55 557.289 606.54 557.289C607.708 557.289 608.859 557.386 609.995 557.581C611.162 557.743 612.281 557.986 613.352 558.311V581.228C612.022 580.774 610.384 580.434 608.437 580.207C606.491 579.98 604.821 579.866 603.426 579.866C600.798 579.866 598.43 580.466 596.322 581.666C594.246 582.834 592.608 584.489 591.407 586.629C590.207 588.738 589.607 591.219 589.607 594.074V633H562.748ZM653.884 634.362C645.774 634.362 638.832 632.757 633.058 629.545C627.284 626.301 622.856 621.793 619.775 616.019C616.693 610.212 615.152 603.481 615.152 595.826C615.152 588.17 616.693 581.456 619.775 575.682C622.856 569.875 627.284 565.366 633.058 562.155C638.832 558.911 645.774 557.289 653.884 557.289C661.993 557.289 668.935 558.911 674.709 562.155C680.483 565.366 684.911 569.875 687.992 575.682C691.074 581.456 692.615 588.17 692.615 595.826C692.615 603.481 691.074 610.212 687.992 616.019C684.911 621.793 680.483 626.301 674.709 629.545C668.935 632.757 661.993 634.362 653.884 634.362ZM654.078 614.51C656.349 614.51 658.311 613.748 659.966 612.223C661.62 610.699 662.901 608.525 663.81 605.703C664.718 602.881 665.172 599.524 665.172 595.631C665.172 591.706 664.718 588.349 663.81 585.559C662.901 582.737 661.62 580.563 659.966 579.039C658.311 577.514 656.349 576.752 654.078 576.752C651.678 576.752 649.618 577.514 647.899 579.039C646.179 580.563 644.866 582.737 643.957 585.559C643.049 588.349 642.595 591.706 642.595 595.631C642.595 599.524 643.049 602.881 643.957 605.703C644.866 608.525 646.179 610.699 647.899 612.223C649.618 613.748 651.678 614.51 654.078 614.51ZM703.514 558.262H730.373V635.53C730.373 642.083 728.994 647.208 726.237 650.906C723.512 654.604 719.685 657.215 714.754 658.74C709.823 660.264 704.066 661.027 697.481 661.027C696.507 661.027 695.615 661.01 694.804 660.978C693.961 660.946 693.037 660.897 692.031 660.832V640.98C692.68 641.045 693.247 641.093 693.734 641.126C694.188 641.158 694.658 641.174 695.145 641.174C698.356 641.174 700.546 640.672 701.714 639.666C702.914 638.693 703.514 637.12 703.514 634.946V558.262ZM716.944 550.477C713.31 550.477 710.196 549.277 707.601 546.876C705.006 544.476 703.709 541.589 703.709 538.215C703.709 534.842 705.006 531.955 707.601 529.554C710.196 527.154 713.31 525.954 716.944 525.954C720.609 525.954 723.723 527.154 726.286 529.554C728.881 531.955 730.178 534.842 730.178 538.215C730.178 541.589 728.881 544.476 726.286 546.876C723.723 549.277 720.609 550.477 716.944 550.477ZM779.87 634.362C771.89 634.362 765.013 632.838 759.239 629.789C753.497 626.707 749.07 622.295 745.956 616.554C742.874 610.78 741.333 603.87 741.333 595.826C741.333 588.105 742.89 581.358 746.004 575.584C749.118 569.81 753.514 565.317 759.19 562.106C764.867 558.895 771.566 557.289 779.286 557.289C784.93 557.289 790.039 558.165 794.613 559.917C799.187 561.668 803.096 564.215 806.339 567.556C809.583 570.864 812.081 574.887 813.833 579.623C815.584 584.359 816.46 589.695 816.46 595.631V601.859H749.702V587.067H791.742C791.71 584.926 791.158 583.045 790.088 581.423C789.05 579.769 787.639 578.487 785.855 577.579C784.103 576.638 782.108 576.168 779.87 576.168C777.696 576.168 775.701 576.638 773.885 577.579C772.068 578.487 770.609 579.753 769.506 581.374C768.435 582.996 767.868 584.894 767.803 587.067V603.027C767.803 605.427 768.306 607.568 769.311 609.45C770.317 611.331 771.76 612.807 773.642 613.878C775.523 614.948 777.794 615.483 780.454 615.483C782.303 615.483 783.989 615.224 785.514 614.705C787.071 614.186 788.401 613.44 789.504 612.467C790.607 611.461 791.418 610.261 791.937 608.866H816.46C815.617 614.056 813.622 618.565 810.475 622.393C807.329 626.188 803.16 629.14 797.97 631.248C792.813 633.324 786.779 634.362 779.87 634.362ZM863.427 634.362C855.317 634.362 848.375 632.757 842.601 629.545C836.827 626.301 832.4 621.793 829.318 616.019C826.236 610.212 824.695 603.481 824.695 595.826C824.695 588.17 826.236 581.456 829.318 575.682C832.4 569.875 836.827 565.366 842.601 562.155C848.375 558.911 855.317 557.289 863.427 557.289C870.758 557.289 877.1 558.619 882.452 561.279C887.837 563.906 892.005 567.637 894.957 572.47C897.909 577.271 899.401 582.915 899.433 589.403H874.521C874.164 585.478 873.029 582.494 871.115 580.45C869.233 578.374 866.8 577.336 863.816 577.336C861.481 577.336 859.437 578.017 857.685 579.379C855.934 580.709 854.571 582.737 853.598 585.462C852.625 588.154 852.138 591.544 852.138 595.631C852.138 599.718 852.625 603.124 853.598 605.849C854.571 608.542 855.934 610.569 857.685 611.931C859.437 613.261 861.481 613.926 863.816 613.926C865.795 613.926 867.546 613.472 869.071 612.564C870.596 611.623 871.828 610.261 872.769 608.477C873.742 606.66 874.326 604.454 874.521 601.859H899.433C899.336 608.444 897.828 614.186 894.908 619.084C891.989 623.95 887.853 627.713 882.501 630.372C877.181 633.032 870.823 634.362 863.427 634.362ZM955.085 558.262V577.725H905.844V558.262H955.085ZM915.381 540.356H942.24V608.963C942.24 610.001 942.418 610.877 942.775 611.591C943.132 612.272 943.683 612.791 944.429 613.148C945.175 613.472 946.132 613.634 947.3 613.634C948.111 613.634 949.052 613.537 950.122 613.342C951.225 613.148 952.036 612.986 952.555 612.856L956.448 631.735C955.247 632.092 953.528 632.53 951.29 633.049C949.084 633.568 946.457 633.908 943.407 634.07C937.244 634.395 932.07 633.762 927.886 632.173C923.701 630.551 920.555 628.005 918.446 624.534C916.338 621.063 915.316 616.716 915.381 611.493V540.356ZM1033.56 582.591H1008.84C1008.71 581.066 1008.17 579.753 1007.23 578.65C1006.29 577.547 1005.08 576.703 1003.58 576.119C1002.12 575.503 1000.5 575.195 998.719 575.195C996.416 575.195 994.437 575.617 992.783 576.46C991.128 577.303 990.317 578.504 990.35 580.061C990.317 581.164 990.788 582.185 991.761 583.126C992.766 584.067 994.696 584.797 997.551 585.316L1012.73 588.041C1020.39 589.435 1026.08 591.787 1029.81 595.096C1033.57 598.372 1035.47 602.768 1035.5 608.282C1035.47 613.602 1033.88 618.224 1030.74 622.149C1027.62 626.042 1023.36 629.059 1017.94 631.2C1012.55 633.308 1006.41 634.362 999.497 634.362C988.079 634.362 979.142 632.027 972.687 627.356C966.264 622.685 962.68 616.521 961.934 608.866H988.598C988.955 611.234 990.123 613.067 992.101 614.364C994.113 615.629 996.643 616.262 999.692 616.262C1002.16 616.262 1004.18 615.84 1005.77 614.997C1007.4 614.153 1008.22 612.953 1008.26 611.396C1008.22 609.969 1007.51 608.833 1006.11 607.99C1004.75 607.147 1002.61 606.465 999.692 605.946L986.457 603.611C978.834 602.281 973.125 599.751 969.33 596.02C965.534 592.29 963.653 587.489 963.685 581.618C963.653 576.428 965.015 572.032 967.773 568.432C970.562 564.798 974.536 562.041 979.694 560.16C984.884 558.246 991.031 557.289 998.135 557.289C1008.94 557.289 1017.45 559.527 1023.68 564.004C1029.94 568.48 1033.23 574.676 1033.56 582.591Z" fill="white"/>
<path d="M594.077 337.724H609.077V322.724H594.077V337.724ZM594.077 467V482H609.077V467H594.077ZM564.787 467L552.428 475.5L556.899 482H564.787V467ZM518.076 399.079L530.436 390.58L525.965 384.079H518.076V399.079ZM517.319 399.079V384.079H502.319V399.079H517.319ZM517.319 467V482H532.319V467H517.319ZM482.222 467H467.222V482H482.222V467ZM482.222 337.724V322.724H467.222V337.724H482.222ZM512.017 337.724L524.426 329.297L519.962 322.724H512.017V337.724ZM557.97 405.392L545.561 413.819L550.025 420.392H557.97V405.392ZM558.98 405.392V420.392H573.98V405.392H558.98ZM558.98 337.724V322.724H543.98V337.724H558.98ZM579.077 337.724V467H609.077V337.724H579.077ZM594.077 452H564.787V482H594.077V452ZM577.147 458.5L530.436 390.58L505.717 407.579L552.428 475.5L577.147 458.5ZM518.076 384.079H517.319V414.079H518.076V384.079ZM502.319 399.079V467H532.319V399.079H502.319ZM517.319 452H482.222V482H517.319V452ZM497.222 467V337.724H467.222V467H497.222ZM482.222 352.724H512.017V322.724H482.222V352.724ZM499.607 346.151L545.561 413.819L570.379 396.965L524.426 329.297L499.607 346.151ZM557.97 420.392H558.98V390.392H557.97V420.392ZM573.98 405.392V337.724H543.98V405.392H573.98ZM558.98 352.724H594.077V322.724H558.98V352.724ZM630.877 462.518L623.531 475.596L623.559 475.612L623.587 475.627L630.877 462.518ZM613.645 444.97L600.395 452.002L600.403 452.017L600.412 452.033L613.645 444.97ZM613.645 392.641L626.878 399.704L626.886 399.688L626.894 399.673L613.645 392.641ZM630.877 375.093L638.168 388.202L638.196 388.186L638.224 388.17L630.877 375.093ZM684.911 375.093L677.564 388.17L677.592 388.186L677.62 388.202L684.911 375.093ZM702.144 392.641L688.894 399.673L688.902 399.688L688.91 399.704L702.144 392.641ZM702.144 444.97L715.377 452.033L715.385 452.017L715.393 452.002L702.144 444.97ZM684.911 462.518L692.202 475.627L692.23 475.612L692.258 475.596L684.911 462.518ZM665.785 440.046L675.95 451.077L675.95 451.077L665.785 440.046ZM670.771 431.588L685.05 436.183L685.05 436.183L670.771 431.588ZM670.771 405.455L656.493 410.05L656.5 410.075L656.508 410.099L670.771 405.455ZM665.785 396.996L675.95 385.966L675.95 385.966L665.785 396.996ZM645.017 405.455L659.28 410.099L659.288 410.075L659.296 410.05L645.017 405.455ZM645.017 431.588L659.296 426.992L659.296 426.992L645.017 431.588ZM657.894 453.767C649.35 453.767 642.975 452.083 638.168 449.409L623.587 475.627C633.761 481.286 645.397 483.767 657.894 483.767V453.767ZM638.224 449.441C633.198 446.617 629.511 442.841 626.878 437.907L600.412 452.033C605.774 462.081 613.576 470.003 623.531 475.596L638.224 449.441ZM626.894 437.938C624.222 432.902 622.648 426.658 622.648 418.774H592.648C592.648 430.752 595.072 441.972 600.395 452.002L626.894 437.938ZM622.648 418.774C622.648 410.887 624.223 404.679 626.878 399.704L600.412 385.578C595.071 395.584 592.648 406.798 592.648 418.774H622.648ZM626.894 399.673C629.527 394.712 633.195 390.967 638.168 388.202L623.587 361.984C613.578 367.55 605.758 375.504 600.395 385.609L626.894 399.673ZM638.224 388.17C643.02 385.476 649.374 383.78 657.894 383.78V353.78C645.374 353.78 633.716 356.293 623.531 362.015L638.224 388.17ZM657.894 383.78C666.415 383.78 672.769 385.476 677.564 388.17L692.258 362.015C682.072 356.293 670.415 353.78 657.894 353.78V383.78ZM677.62 388.202C682.593 390.967 686.261 394.712 688.894 399.673L715.393 385.609C710.03 375.504 702.21 367.55 692.202 361.984L677.62 388.202ZM688.91 399.704C691.566 404.679 693.14 410.887 693.14 418.774H723.14C723.14 406.798 720.717 395.584 715.377 385.578L688.91 399.704ZM693.14 418.774C693.14 426.658 691.566 432.902 688.894 437.938L715.393 452.002C720.716 441.972 723.14 430.752 723.14 418.774H693.14ZM688.91 437.907C686.277 442.841 682.59 446.617 677.564 449.441L692.258 475.596C702.213 470.003 710.014 462.081 715.377 452.033L688.91 437.907ZM677.62 449.409C672.813 452.083 666.438 453.767 657.894 453.767V483.767C670.391 483.767 682.028 481.286 692.202 475.627L677.62 449.409ZM658.147 458.013C664.82 458.013 671.005 455.633 675.95 451.077L655.619 429.016C655.83 428.822 656.242 428.52 656.834 428.289C657.425 428.06 657.909 428.013 658.147 428.013V458.013ZM675.95 451.077C680.51 446.874 683.323 441.55 685.05 436.183L656.493 426.992C655.863 428.948 655.351 429.263 655.619 429.016L675.95 451.077ZM685.05 436.183C686.829 430.656 687.539 424.672 687.539 418.521H657.539C657.539 422.47 657.07 425.198 656.493 426.992L685.05 436.183ZM687.539 418.521C687.539 412.35 686.834 406.339 685.034 400.811L656.508 410.099C657.065 411.809 657.539 414.509 657.539 418.521H687.539ZM685.05 400.859C683.323 395.493 680.51 390.169 675.95 385.966L655.619 408.027C655.351 407.78 655.863 408.094 656.493 410.05L685.05 400.859ZM675.95 385.966C671.005 381.409 664.82 379.03 658.147 379.03V409.03C657.909 409.03 657.425 408.983 656.834 408.754C656.242 408.523 655.83 408.221 655.619 408.027L675.95 385.966ZM658.147 379.03C651.544 379.03 645.283 381.246 640.178 385.774L660.082 408.219C659.871 408.407 659.502 408.658 659.013 408.839C658.535 409.016 658.201 409.03 658.147 409.03V379.03ZM640.178 385.774C635.435 389.98 632.505 395.369 630.738 400.859L659.296 410.05C659.885 408.219 660.365 407.969 660.082 408.219L640.178 385.774ZM630.754 400.811C628.954 406.339 628.25 412.35 628.25 418.521H658.25C658.25 414.509 658.723 411.809 659.28 410.099L630.754 400.811ZM628.25 418.521C628.25 424.672 628.959 430.656 630.738 436.183L659.296 426.992C658.718 425.198 658.25 422.47 658.25 418.521H628.25ZM630.738 436.183C632.505 441.674 635.435 447.063 640.178 451.269L660.082 428.824C660.365 429.074 659.885 428.824 659.296 426.992L630.738 436.183ZM640.178 451.269C645.283 455.797 651.544 458.013 658.147 458.013V428.013C658.201 428.013 658.535 428.027 659.013 428.204C659.502 428.385 659.871 428.636 660.082 428.824L640.178 451.269ZM780.101 370.043H795.101V355.043H780.101V370.043ZM780.101 395.292V410.292H795.101V395.292H780.101ZM716.22 395.292H701.22V410.292H716.22V395.292ZM716.22 370.043V355.043H701.22V370.043H716.22ZM728.592 346.813V331.813H713.592V346.813H728.592ZM763.436 346.813H778.436V331.813H763.436V346.813ZM764.13 439.226L750.714 445.934L750.777 446.061L750.843 446.186L764.13 439.226ZM766.277 441.246L759.805 454.778L760.048 454.894L760.296 455.002L766.277 441.246ZM773.662 441.498L771.055 426.726L771.017 426.733L770.979 426.74L773.662 441.498ZM776.818 440.867L791.509 437.838L788.351 422.522L773.18 426.315L776.818 440.867ZM781.868 465.359L786.143 479.737L799.339 475.814L796.559 462.33L781.868 465.359ZM775.177 467.063L771.789 452.451L771.765 452.456L771.741 452.462L775.177 467.063ZM764.951 468.389L765.739 483.368L765.748 483.368L764.951 468.389ZM744.815 465.927L739.394 479.913L739.441 479.931L739.488 479.949L744.815 465.927ZM732.569 456.017L719.749 463.804L719.749 463.804L732.569 456.017ZM728.592 439.1L743.591 439.286L743.592 439.193V439.1H728.592ZM765.101 370.043V395.292H795.101V370.043H765.101ZM780.101 380.292H716.22V410.292H780.101V380.292ZM731.22 395.292V370.043H701.22V395.292H731.22ZM716.22 385.043H780.101V355.043H716.22V385.043ZM728.592 361.813H763.436V331.813H728.592V361.813ZM748.436 346.813V435.817H778.436V346.813H748.436ZM748.436 435.817C748.436 438.817 748.945 442.395 750.714 445.934L777.547 432.518C778.39 434.205 778.436 435.511 778.436 435.817H748.436ZM750.843 446.186C752.925 450.16 756.149 453.029 759.805 454.778L772.748 427.714C774.468 428.536 776.262 430.059 777.418 432.266L750.843 446.186ZM760.296 455.002C763.785 456.519 767.255 456.877 770.001 456.877V426.877C769.92 426.877 770.086 426.87 770.44 426.93C770.793 426.99 771.44 427.134 772.258 427.49L760.296 455.002ZM770.001 456.877C772.198 456.877 774.35 456.619 776.345 456.256L770.979 426.74C770.607 426.808 770.338 426.844 770.162 426.862C769.982 426.88 769.935 426.877 770.001 426.877V456.877ZM776.269 456.27C777.758 456.007 779.243 455.722 780.456 455.419L773.18 426.315C773.184 426.314 773.137 426.326 773.026 426.35C772.919 426.374 772.772 426.404 772.582 426.442C772.199 426.519 771.695 426.614 771.055 426.726L776.269 456.27ZM762.127 443.896L767.177 468.388L796.559 462.33L791.509 437.838L762.127 443.896ZM777.594 450.981C776.477 451.313 774.596 451.8 771.789 452.451L778.565 481.675C781.565 480.98 784.145 480.331 786.143 479.737L777.594 450.981ZM771.741 452.462C769.985 452.875 767.505 453.232 764.154 453.41L765.748 483.368C770.308 483.125 774.645 482.598 778.613 481.664L771.741 452.462ZM764.163 453.409C757.51 453.76 753.03 453.002 750.141 451.904L739.488 479.949C747.457 482.976 756.401 483.859 765.739 483.368L764.163 453.409ZM750.236 451.941C747.547 450.898 746.227 449.608 745.389 448.229L719.749 463.804C724.382 471.431 731.226 476.747 739.394 479.913L750.236 451.941ZM745.389 448.229C744.475 446.725 743.532 444.044 743.591 439.286L713.593 438.913C713.484 447.706 715.192 456.303 719.749 463.804L745.389 448.229ZM743.592 439.1V346.813H713.592V439.1H743.592ZM840.336 465.485L834.324 479.227L834.397 479.26L834.471 479.291L840.336 465.485ZM829.226 456.143L816.629 464.286L816.629 464.286L829.226 456.143ZM827.901 426.664L841.407 433.19L841.421 433.16L841.435 433.131L827.901 426.664ZM835.475 417.385L844.4 429.441L844.4 429.441L835.475 417.385ZM846.774 411.893L842.58 397.492L842.561 397.497L842.542 397.503L846.774 411.893ZM860.788 409.432L861.919 424.389L861.933 424.388L861.947 424.387L860.788 409.432ZM873.854 407.917L876.504 422.681L876.578 422.667L876.652 422.653L873.854 407.917ZM881.05 405.329L889.995 417.37L890.105 417.289L890.212 417.205L881.05 405.329ZM880.356 394.787L871.79 407.101L871.79 407.101L880.356 394.787ZM864.765 394.976L873.316 407.3L873.341 407.283L873.367 407.265L864.765 394.976ZM861.04 401.604V416.604H874.076L875.894 403.696L861.04 401.604ZM828.974 401.604L814.012 400.536L812.864 416.604H828.974V401.604ZM834.592 385.319L822.143 376.95L822.135 376.962L822.127 376.974L834.592 385.319ZM849.299 373.325L855.613 386.932L855.65 386.915L855.686 386.898L849.299 373.325ZM892.097 371.242L887.817 385.619L887.867 385.634L887.918 385.648L892.097 371.242ZM906.173 377.996L897.173 389.996L897.215 390.028L897.257 390.059L906.173 377.996ZM915.011 388.096L901.712 395.035L901.757 395.121L901.804 395.208L915.011 388.096ZM918.104 467V482H933.104V467H918.104ZM885.532 467H870.532V482H885.532V467ZM885.532 453.365H900.532V438.365H885.532V453.365ZM884.775 453.365V438.365H875.787L871.548 446.291L884.775 453.365ZM877.705 462.14L868.313 450.444L868.269 450.479L868.226 450.514L877.705 462.14ZM868.299 467L864.179 452.577L864.156 452.584L864.133 452.59L868.299 467ZM875.559 444.907L869.242 431.302L869.195 431.324L869.148 431.346L875.559 444.907ZM881.303 440.173L869.097 431.454L869.097 431.454L881.303 440.173ZM883.512 424.581H898.512V402.238L877.833 410.698L883.512 424.581ZM880.545 425.654L875.974 411.368L875.888 411.395L875.802 411.424L880.545 425.654ZM877.263 426.601L873.625 412.049L873.562 412.065L873.499 412.081L877.263 426.601ZM873.602 427.422L870.751 412.695L870.706 412.704L870.66 412.713L873.602 427.422ZM869.625 428.116L867.378 413.285L867.344 413.291L867.309 413.296L869.625 428.116ZM862.997 430.199L870.226 443.342L870.281 443.312L870.336 443.281L862.997 430.199ZM859.21 433.671L846.382 425.896L846.347 425.955L846.312 426.013L859.21 433.671ZM860.851 444.402L869.893 432.434L869.893 432.434L860.851 444.402ZM856.748 453.515C852.187 453.515 848.773 452.772 846.2 451.679L834.471 479.291C841.409 482.238 848.937 483.515 856.748 483.515V453.515ZM846.348 451.743C844.226 450.814 842.857 449.598 841.823 447.999L816.629 464.286C820.982 471.019 827.019 476.032 834.324 479.227L846.348 451.743ZM841.823 447.999C841.103 446.886 840.186 444.634 840.186 440.236H810.186C810.186 448.715 811.963 457.068 816.629 464.286L841.823 447.999ZM840.186 440.236C840.186 436.592 840.812 434.42 841.407 433.19L814.394 420.139C811.37 426.399 810.186 433.275 810.186 440.236H840.186ZM841.435 433.131C842.233 431.461 843.212 430.321 844.4 429.441L826.551 405.329C821.258 409.247 817.187 414.293 814.366 420.198L841.435 433.131ZM844.4 429.441C846.079 428.199 848.219 427.104 851.007 426.284L842.542 397.503C836.745 399.208 831.353 401.774 826.551 405.329L844.4 429.441ZM850.969 426.295C854.2 425.354 857.835 424.698 861.919 424.389L859.657 394.474C853.725 394.923 848.018 395.908 842.58 397.492L850.969 426.295ZM861.947 424.387C867.606 423.948 872.519 423.396 876.504 422.681L871.204 393.153C868.624 393.616 864.827 394.074 859.628 394.477L861.947 424.387ZM876.652 422.653C880.629 421.898 885.75 420.524 889.995 417.37L872.105 393.288C872.534 392.969 872.86 392.792 873.006 392.719C873.155 392.643 873.189 392.639 873.07 392.681C872.954 392.723 872.733 392.796 872.386 392.886C872.04 392.976 871.601 393.077 871.056 393.18L876.652 422.653ZM890.212 417.205C895.347 413.245 898.26 407.374 898.26 400.847H868.26C868.26 399.733 868.495 398.261 869.253 396.724C870.01 395.189 871.027 394.117 871.888 393.452L890.212 417.205ZM898.26 400.847V400.594H868.26V400.847H898.26ZM898.26 400.594C898.26 393.569 895.214 386.85 888.922 382.474L871.79 407.101C870.887 406.472 869.855 405.431 869.117 403.957C868.399 402.521 868.26 401.273 868.26 400.594H898.26ZM888.922 382.474C883.842 378.939 878.13 377.767 872.907 377.767V407.767C873.325 407.767 873.357 407.815 873.116 407.749C872.849 407.677 872.356 407.494 871.79 407.101L888.922 382.474ZM872.907 377.767C867.407 377.767 861.438 378.995 856.163 382.688L873.367 407.265C873.128 407.432 872.903 407.556 872.709 407.645C872.517 407.733 872.376 407.777 872.306 407.796C872.175 407.832 872.338 407.767 872.907 407.767V377.767ZM856.213 382.653C850.03 386.943 847.063 393.291 846.187 399.512L875.894 403.696C875.892 403.705 875.813 404.255 875.364 405.055C874.883 405.91 874.169 406.708 873.316 407.3L856.213 382.653ZM861.04 386.604H828.974V416.604H861.04V386.604ZM843.936 402.673C844.168 399.415 845.165 396.489 847.056 393.663L822.127 376.974C817.37 384.08 814.621 392.011 814.012 400.536L843.936 402.673ZM847.04 393.687C848.627 391.327 851.216 388.972 855.613 386.932L842.985 359.719C834.505 363.654 827.289 369.295 822.143 376.95L847.04 393.687ZM855.686 386.898C859.55 385.079 865.243 383.78 873.412 383.78V353.78C862.308 353.78 851.925 355.512 842.912 359.753L855.686 386.898ZM873.412 383.78C879.196 383.78 883.946 384.466 887.817 385.619L896.377 356.866C889.223 354.736 881.516 353.78 873.412 353.78V383.78ZM887.918 385.648C892.008 386.835 894.992 388.361 897.173 389.996L915.173 365.996C909.611 361.825 903.211 358.848 896.276 356.836L887.918 385.648ZM897.257 390.059C899.488 391.708 900.849 393.381 901.712 395.035L928.309 381.158C925.132 375.068 920.602 370.008 915.089 365.934L897.257 390.059ZM901.804 395.208C902.646 396.773 903.104 398.483 903.104 400.594H933.104C933.104 393.7 931.499 387.078 928.218 380.985L901.804 395.208ZM903.104 400.594V467H933.104V400.594H903.104ZM918.104 452H885.532V482H918.104V452ZM900.532 467V453.365H870.532V467H900.532ZM885.532 438.365H884.775V468.365H885.532V438.365ZM871.548 446.291C870.422 448.396 869.292 449.658 868.313 450.444L887.097 473.835C891.673 470.161 895.256 465.573 898.001 460.44L871.548 446.291ZM868.226 450.514C867.134 451.405 865.839 452.103 864.179 452.577L872.42 481.423C877.829 479.877 882.805 477.335 887.184 473.765L868.226 450.514ZM864.133 452.59C862.187 453.153 859.763 453.515 856.748 453.515V483.515C862.149 483.515 867.426 482.867 872.466 481.41L864.133 452.59ZM868.11 461.548C872.897 461.548 877.578 460.544 881.969 458.468L869.148 431.346C868.91 431.458 868.625 431.548 868.11 431.548V461.548ZM881.875 458.512C886.522 456.355 890.489 453.119 893.509 448.891L869.097 431.454C869.097 431.454 869.1 431.45 869.106 431.442C869.113 431.434 869.123 431.423 869.135 431.409C869.16 431.382 869.19 431.354 869.222 431.327C869.254 431.301 869.278 431.285 869.288 431.279C869.297 431.273 869.284 431.282 869.242 431.302L881.875 458.512ZM893.509 448.891C897.082 443.889 898.512 438.209 898.512 432.661H868.512C868.512 432.882 868.485 432.802 868.569 432.516C868.659 432.21 868.831 431.827 869.097 431.454L893.509 448.891ZM898.512 432.661V424.581H868.512V432.661H898.512ZM877.833 410.698C877.306 410.914 876.689 411.139 875.974 411.368L885.117 439.941C886.505 439.496 887.867 439.006 889.192 438.464L877.833 410.698ZM875.802 411.424C875.203 411.624 874.481 411.835 873.625 412.049L880.901 441.153C882.401 440.778 883.868 440.358 885.289 439.885L875.802 411.424ZM873.499 412.081C872.701 412.288 871.788 412.494 870.751 412.695L876.452 442.148C878.024 441.844 879.552 441.504 881.027 441.121L873.499 412.081ZM870.66 412.713C869.648 412.916 868.555 413.107 867.378 413.285L871.872 442.947C873.473 442.704 875.031 442.433 876.544 442.13L870.66 412.713ZM867.309 413.296C863.471 413.896 859.408 415.014 855.658 417.117L870.336 443.281C870.159 443.381 870.165 443.351 870.446 443.262C870.725 443.175 871.207 443.051 871.941 442.936L867.309 413.296ZM855.768 417.056C852.204 419.016 848.817 421.878 846.382 425.896L872.038 441.445C871.285 442.687 870.423 443.234 870.226 443.342L855.768 417.056ZM846.312 426.013C844.033 429.85 843.01 434.046 843.01 438.216H873.01C873.01 438.571 872.967 439.064 872.814 439.644C872.659 440.232 872.418 440.806 872.108 441.329L846.312 426.013ZM843.01 438.216C843.01 444.888 845.621 451.695 851.808 456.37L869.893 432.434C870.83 433.142 871.743 434.196 872.352 435.523C872.933 436.788 873.01 437.801 873.01 438.216H843.01ZM851.808 456.37C856.88 460.202 862.702 461.548 868.11 461.548V431.548C867.842 431.548 867.96 431.515 868.339 431.627C868.748 431.748 869.313 431.995 869.893 432.434L851.808 456.37ZM969.596 337.724H984.596V322.724H969.596V337.724ZM969.596 467V482H984.596V467H969.596ZM934.752 467H919.752V482H934.752V467ZM934.752 337.724V322.724H919.752V337.724H934.752ZM954.596 337.724V467H984.596V337.724H954.596ZM969.596 452H934.752V482H969.596V452ZM949.752 467V337.724H919.752V467H949.752ZM934.752 352.724H969.596V322.724H934.752V352.724ZM1022.19 337.724H1037.19V322.724H1022.19V337.724ZM1022.19 467V482H1037.19V467H1022.19ZM987.35 467H972.35V482H987.35V467ZM987.35 337.724V322.724H972.35V337.724H987.35ZM1007.19 337.724V467H1037.19V337.724H1007.19ZM1022.19 452H987.35V482H1022.19V452ZM1002.35 467V337.724H972.35V467H1002.35ZM987.35 352.724H1022.19V322.724H987.35V352.724ZM472.44 633H457.44V648H472.44V633ZM472.44 533.35V518.35H457.44V533.35H472.44ZM534.867 537.729L527.881 551.002L527.881 551.003L534.867 537.729ZM547.81 550.039L560.77 542.486L560.77 542.486L547.81 550.039ZM547.664 587.116L534.851 579.317L534.834 579.346L534.816 579.375L547.664 587.116ZM534.381 599.183L527.734 585.736L527.719 585.744L527.703 585.751L534.381 599.183ZM488.789 603.416H473.789V618.416H488.789V603.416ZM488.789 582.396V567.396H473.789V582.396H488.789ZM517.156 580.742L523.786 594.197L523.825 594.178L523.864 594.158L517.156 580.742ZM522.362 575.925L509.465 568.267L509.42 568.342L509.376 568.417L522.362 575.925ZM522.362 561.279L509.428 568.875L509.5 568.997L509.573 569.117L522.362 561.279ZM517.156 556.608L510.526 570.063L510.642 570.12L510.76 570.176L517.156 556.608ZM499.493 554.953V539.953H484.493V554.953H499.493ZM499.493 633V648H514.493V633H499.493ZM487.44 633V533.35H457.44V633H487.44ZM472.44 548.35H515.453V518.35H472.44V548.35ZM515.453 548.35C520.852 548.35 524.845 549.404 527.881 551.002L541.854 524.455C533.796 520.214 524.846 518.35 515.453 518.35V548.35ZM527.881 551.003C531.004 552.646 533.221 554.795 534.851 557.592L560.77 542.486C556.237 534.708 549.825 528.65 541.854 524.455L527.881 551.003ZM534.851 557.592C536.4 560.251 537.433 563.742 537.433 568.578H567.433C567.433 559.27 565.384 550.402 560.77 542.486L534.851 557.592ZM537.433 568.578C537.433 573.43 536.375 576.813 534.851 579.317L560.477 594.915C565.311 586.974 567.433 577.998 567.433 568.578H537.433ZM534.816 579.375C533.217 582.03 530.993 584.125 527.734 585.736L541.028 612.63C549.187 608.597 555.819 602.647 560.513 594.857L534.816 579.375ZM527.703 585.751C524.472 587.358 520.206 588.416 514.48 588.416V618.416C523.935 618.416 532.936 616.653 541.058 612.615L527.703 585.751ZM514.48 588.416H488.789V618.416H514.48V588.416ZM503.789 603.416V582.396H473.789V603.416H503.789ZM488.789 597.396H509.03V567.396H488.789V597.396ZM509.03 597.396C513.897 597.396 519 596.556 523.786 594.197L510.526 567.287C510.836 567.134 510.521 567.396 509.03 567.396V597.396ZM523.864 594.158C528.599 591.791 532.591 588.202 535.348 583.432L509.376 568.417C509.518 568.173 509.722 567.908 509.974 567.676C510.22 567.448 510.409 567.345 510.448 567.325L523.864 594.158ZM535.26 583.583C538.086 578.823 539.211 573.634 539.211 568.578H509.211C509.211 568.897 509.177 568.973 509.203 568.87C509.216 568.819 509.241 568.734 509.286 568.624C509.331 568.513 509.39 568.392 509.465 568.267L535.26 583.583ZM539.211 568.578C539.211 563.54 538.107 558.263 535.151 553.44L509.573 569.117C509.351 568.754 509.248 568.451 509.209 568.296C509.173 568.156 509.211 568.226 509.211 568.578H539.211ZM535.297 553.683C532.475 548.878 528.383 545.317 523.552 543.04L510.76 570.176C510.679 570.137 510.44 570.009 510.144 569.743C509.842 569.473 509.598 569.164 509.428 568.875L535.297 553.683ZM523.786 543.153C519 540.794 513.897 539.953 509.03 539.953V569.953C510.521 569.953 510.836 570.216 510.526 570.063L523.786 543.153ZM509.03 539.953H499.493V569.953H509.03V539.953ZM484.493 554.953V633H514.493V554.953H484.493ZM499.493 618H472.44V648H499.493V618ZM562.748 633H547.748V648H562.748V633ZM562.748 558.262V543.262H547.748V558.262H562.748ZM588.829 558.262H603.829V543.262H588.829V558.262ZM588.829 572.47H573.829V587.47H588.829V572.47ZM589.607 572.47V587.47H601.214L604.127 576.235L589.607 572.47ZM596.078 560.938L586.601 549.312L586.569 549.337L586.538 549.363L596.078 560.938ZM609.995 557.581L607.46 572.365L607.695 572.406L607.931 572.438L609.995 557.581ZM613.352 558.311H628.352V547.183L617.702 543.955L613.352 558.311ZM613.352 581.228L608.505 595.424L628.352 602.201V581.228H613.352ZM608.437 580.207L610.176 565.308L610.176 565.308L608.437 580.207ZM596.322 581.666L603.676 594.74L603.709 594.721L603.742 594.702L596.322 581.666ZM591.407 586.629L604.443 594.05L604.468 594.007L604.492 593.965L591.407 586.629ZM589.607 633V648H604.607V633H589.607ZM577.748 633V558.262H547.748V633H577.748ZM562.748 573.262H588.829V543.262H562.748V573.262ZM573.829 558.262V572.47H603.829V558.262H573.829ZM588.829 587.47H589.607V557.47H588.829V587.47ZM604.127 576.235C605.017 572.801 605.942 572.247 605.619 572.514L586.538 549.363C580.312 554.495 576.922 561.629 575.087 568.706L604.127 576.235ZM605.556 572.565C605.754 572.404 605.847 572.373 605.873 572.364C605.905 572.353 606.092 572.289 606.54 572.289V542.289C599.232 542.289 592.365 544.613 586.601 549.312L605.556 572.565ZM606.54 572.289C606.87 572.289 607.173 572.316 607.46 572.365L612.529 542.797C610.545 542.457 608.545 542.289 606.54 542.289V572.289ZM607.931 572.438C608.366 572.499 608.718 572.58 609.002 572.666L617.702 543.955C615.845 543.393 613.958 542.988 612.058 542.724L607.931 572.438ZM598.352 558.311V581.228H628.352V558.311H598.352ZM618.199 567.033C615.553 566.13 612.8 565.614 610.176 565.308L606.699 595.106C607.303 595.176 607.754 595.252 608.072 595.318C608.394 595.385 608.525 595.431 608.505 595.424L618.199 567.033ZM610.176 565.308C607.864 565.038 605.581 564.866 603.426 564.866V594.866C604.06 594.866 605.119 594.921 606.699 595.106L610.176 565.308ZM603.426 564.866C598.419 564.866 593.457 566.037 588.901 568.63L603.742 594.702C603.685 594.735 603.62 594.767 603.549 594.795C603.478 594.824 603.414 594.844 603.364 594.856C603.256 594.884 603.261 594.866 603.426 594.866V564.866ZM588.968 568.593C584.415 571.153 580.827 574.828 578.323 579.294L604.492 593.965C604.467 594.008 604.376 594.155 604.195 594.337C604.012 594.522 603.823 594.657 603.676 594.74L588.968 568.593ZM578.371 579.209C575.673 583.949 574.607 589.08 574.607 594.074H604.607C604.607 593.697 604.647 593.558 604.637 593.598C604.632 593.618 604.617 593.674 604.584 593.758C604.551 593.843 604.505 593.942 604.443 594.05L578.371 579.209ZM574.607 594.074V633H604.607V594.074H574.607ZM589.607 618H562.748V648H589.607V618ZM633.058 629.545L625.711 642.623L625.739 642.639L625.767 642.654L633.058 629.545ZM619.775 616.019L606.525 623.05L606.533 623.066L606.541 623.081L619.775 616.019ZM619.775 575.682L633.008 582.744L633.016 582.729L633.024 582.713L619.775 575.682ZM633.058 562.155L640.349 575.264L640.377 575.248L640.405 575.232L633.058 562.155ZM674.709 562.155L667.362 575.232L667.39 575.248L667.418 575.264L674.709 562.155ZM687.992 575.682L674.743 582.713L674.751 582.729L674.759 582.744L687.992 575.682ZM687.992 616.019L701.226 623.081L701.234 623.066L701.242 623.05L687.992 616.019ZM674.709 629.545L682 642.654L682.028 642.639L682.056 642.623L674.709 629.545ZM659.966 612.223L670.131 623.254L670.131 623.254L659.966 612.223ZM663.81 605.703L678.088 610.299L678.088 610.299L663.81 605.703ZM663.81 585.559L649.531 590.154L649.539 590.179L649.547 590.203L663.81 585.559ZM659.966 579.039L670.131 568.009L670.131 568.009L659.966 579.039ZM643.957 585.559L658.22 590.203L658.228 590.179L658.236 590.154L643.957 585.559ZM643.957 605.703L658.236 601.108L658.236 601.108L643.957 605.703ZM653.884 619.362C647.751 619.362 643.44 618.155 640.349 616.436L625.767 642.654C634.225 647.358 643.797 649.362 653.884 649.362V619.362ZM640.405 616.468C637.095 614.608 634.725 612.173 633.008 608.956L606.541 623.081C610.988 631.413 617.473 637.995 625.711 642.623L640.405 616.468ZM633.024 608.987C631.268 605.677 630.152 601.434 630.152 595.826H600.152C600.152 605.528 602.118 614.747 606.525 623.05L633.024 608.987ZM630.152 595.826C630.152 590.215 631.269 586.003 633.008 582.744L606.541 568.619C602.117 576.908 600.152 586.126 600.152 595.826H630.152ZM633.024 582.713C634.741 579.479 637.093 577.075 640.349 575.264L625.767 549.046C617.476 553.658 610.972 560.271 606.525 568.65L633.024 582.713ZM640.405 575.232C643.484 573.503 647.774 572.289 653.884 572.289V542.289C643.774 542.289 634.181 544.319 625.711 549.077L640.405 575.232ZM653.884 572.289C659.993 572.289 664.283 573.503 667.362 575.232L682.056 549.077C673.587 544.319 663.993 542.289 653.884 542.289V572.289ZM667.418 575.264C670.674 577.075 673.026 579.479 674.743 582.713L701.242 568.65C696.795 560.271 690.291 553.658 682 549.046L667.418 575.264ZM674.759 582.744C676.498 586.003 677.615 590.215 677.615 595.826H707.615C707.615 586.126 705.65 576.908 701.226 568.619L674.759 582.744ZM677.615 595.826C677.615 601.434 676.499 605.677 674.743 608.987L701.242 623.05C705.649 614.747 707.615 605.528 707.615 595.826H677.615ZM674.759 608.956C673.042 612.173 670.672 614.608 667.362 616.468L682.056 642.623C690.294 637.995 696.779 631.413 701.226 623.081L674.759 608.956ZM667.418 616.436C664.328 618.155 660.016 619.362 653.884 619.362V649.362C663.97 649.362 673.542 647.358 682 642.654L667.418 616.436ZM654.078 629.51C660.077 629.51 665.678 627.357 670.131 623.254L649.8 601.193C650.257 600.772 650.937 600.3 651.822 599.956C652.704 599.614 653.502 599.51 654.078 599.51V629.51ZM670.131 623.254C674.2 619.504 676.631 614.826 678.088 610.299L649.531 601.108C649.446 601.37 649.373 601.556 649.32 601.676C649.268 601.797 649.239 601.843 649.246 601.832C649.262 601.804 649.424 601.539 649.8 601.193L670.131 623.254ZM678.088 610.299C679.597 605.61 680.172 600.625 680.172 595.631H650.172C650.172 598.423 649.838 600.152 649.531 601.108L678.088 610.299ZM680.172 595.631C680.172 590.627 679.603 585.614 678.073 580.915L649.547 590.203C649.833 591.083 650.172 592.785 650.172 595.631H680.172ZM678.088 580.964C676.631 576.436 674.2 571.758 670.131 568.009L649.8 590.069C649.424 589.723 649.262 589.458 649.246 589.43C649.239 589.419 649.268 589.466 649.32 589.586C649.373 589.706 649.446 589.892 649.531 590.154L678.088 580.964ZM670.131 568.009C665.678 563.905 660.077 561.752 654.078 561.752V591.752C653.502 591.752 652.704 591.649 651.822 591.306C650.937 590.962 650.257 590.49 649.8 590.069L670.131 568.009ZM654.078 561.752C648.189 561.752 642.541 563.742 637.946 567.816L657.851 590.262C657.384 590.676 656.734 591.097 655.939 591.391C655.154 591.682 654.49 591.752 654.078 591.752V561.752ZM637.946 567.816C633.714 571.569 631.176 576.312 629.679 580.964L658.236 590.154C658.392 589.671 658.496 589.514 658.461 589.572C658.418 589.644 658.234 589.922 657.851 590.262L637.946 567.816ZM629.694 580.915C628.164 585.614 627.595 590.627 627.595 595.631H657.595C657.595 592.785 657.934 591.083 658.22 590.203L629.694 580.915ZM627.595 595.631C627.595 600.625 628.17 605.61 629.679 610.299L658.236 601.108C657.929 600.152 657.595 598.423 657.595 595.631H627.595ZM629.679 610.299C631.176 614.95 633.714 619.693 637.946 623.446L657.851 601C658.234 601.34 658.418 601.618 658.461 601.69C658.496 601.748 658.392 601.591 658.236 601.108L629.679 610.299ZM637.946 623.446C642.541 627.52 648.189 629.51 654.078 629.51V599.51C654.49 599.51 655.154 599.58 655.939 599.871C656.734 600.165 657.384 600.586 657.851 601L637.946 623.446ZM703.514 558.262V543.262H688.514V558.262H703.514ZM730.373 558.262H745.373V543.262H730.373V558.262ZM726.237 650.906L714.212 641.94L714.186 641.974L714.161 642.008L726.237 650.906ZM714.754 658.74L710.323 644.409L710.323 644.409L714.754 658.74ZM694.804 660.978L695.404 645.99L695.392 645.99L695.381 645.989L694.804 660.978ZM692.031 660.832H677.031V674.895L691.065 675.801L692.031 660.832ZM692.031 640.98L693.524 626.054L677.031 624.405V640.98H692.031ZM693.734 641.126L694.803 626.164L694.767 626.161L694.732 626.159L693.734 641.126ZM701.714 639.666L692.267 628.015L692.094 628.155L691.926 628.3L701.714 639.666ZM707.601 546.876L697.416 557.888L697.416 557.888L707.601 546.876ZM707.601 529.554L697.416 518.543L697.416 518.543L707.601 529.554ZM726.286 529.554L716.031 540.502L716.066 540.534L716.1 540.566L726.286 529.554ZM726.286 546.876L716.1 535.865L716.066 535.897L716.031 535.929L726.286 546.876ZM703.514 573.262H730.373V543.262H703.514V573.262ZM715.373 558.262V635.53H745.373V558.262H715.373ZM715.373 635.53C715.373 640.169 714.376 641.72 714.212 641.94L738.262 659.872C743.613 652.696 745.373 643.996 745.373 635.53H715.373ZM714.161 642.008C713.571 642.809 712.586 643.709 710.323 644.409L719.185 673.07C726.783 670.721 733.454 666.398 738.313 659.804L714.161 642.008ZM710.323 644.409C707.16 645.387 702.956 646.027 697.481 646.027V676.027C705.175 676.027 712.487 675.142 719.185 673.07L710.323 644.409ZM697.481 646.027C696.669 646.027 695.981 646.013 695.404 645.99L694.205 675.966C695.25 676.008 696.345 676.027 697.481 676.027V646.027ZM695.381 645.989C694.689 645.963 693.897 645.921 692.997 645.863L691.065 675.801C692.177 675.873 693.233 675.929 694.228 675.967L695.381 645.989ZM707.031 660.832V640.98H677.031V660.832H707.031ZM690.538 655.905C691.301 655.982 692.04 656.046 692.736 656.093L694.732 626.159C694.455 626.141 694.059 626.108 693.524 626.054L690.538 655.905ZM692.665 656.088C693.498 656.147 694.326 656.174 695.145 656.174V626.174C694.991 626.174 694.878 626.169 694.803 626.164L692.665 656.088ZM695.145 656.174C698.706 656.174 705.886 655.868 711.502 651.033L691.926 628.3C692.918 627.445 693.848 626.936 694.499 626.643C695.147 626.352 695.629 626.226 695.839 626.178C696.203 626.094 696.06 626.174 695.145 626.174V656.174ZM711.161 651.317C717.138 646.471 718.514 639.714 718.514 634.946H688.514C688.514 634.711 688.539 633.747 689.049 632.41C689.603 630.958 690.634 629.339 692.267 628.015L711.161 651.317ZM718.514 634.946V558.262H688.514V634.946H718.514ZM716.944 535.477C716.863 535.477 716.869 535.471 716.943 535.484C717.019 535.497 717.137 535.526 717.278 535.58C717.419 535.635 717.545 535.7 717.647 535.764C717.747 535.827 717.793 535.87 717.787 535.865L697.416 557.888C702.867 562.93 709.65 565.477 716.944 565.477V535.477ZM717.787 535.865C717.782 535.86 717.86 535.932 717.978 536.092C718.098 536.254 718.237 536.479 718.364 536.762C718.64 537.377 718.709 537.924 718.709 538.215H688.709C688.709 545.99 691.917 552.801 697.416 557.888L717.787 535.865ZM718.709 538.215C718.709 538.506 718.64 539.053 718.364 539.669C718.237 539.951 718.098 540.176 717.978 540.339C717.86 540.498 717.782 540.57 717.787 540.566L697.416 518.543C691.917 523.629 688.709 530.44 688.709 538.215H718.709ZM717.787 540.566C717.793 540.561 717.747 540.603 717.647 540.666C717.545 540.731 717.419 540.796 717.278 540.85C717.137 540.904 717.019 540.933 716.943 540.947C716.869 540.96 716.863 540.954 716.944 540.954V510.954C709.65 510.954 702.867 513.501 697.416 518.543L717.787 540.566ZM716.944 540.954C717.113 540.954 716.96 540.976 716.634 540.85C716.484 540.793 716.345 540.721 716.226 540.646C716.109 540.572 716.045 540.514 716.031 540.502L736.54 518.607C731.066 513.479 724.233 510.954 716.944 510.954V540.954ZM716.1 540.566C716.105 540.57 716.027 540.498 715.909 540.339C715.79 540.176 715.65 539.951 715.524 539.669C715.247 539.053 715.178 538.506 715.178 538.215H745.178C745.178 530.44 741.97 523.629 736.471 518.543L716.1 540.566ZM715.178 538.215C715.178 537.924 715.247 537.377 715.524 536.762C715.65 536.479 715.79 536.254 715.909 536.092C716.027 535.932 716.105 535.86 716.1 535.865L736.471 557.888C741.97 552.801 745.178 545.99 745.178 538.215H715.178ZM716.031 535.929C716.045 535.916 716.109 535.859 716.226 535.785C716.345 535.71 716.484 535.638 716.634 535.58C716.96 535.455 717.113 535.477 716.944 535.477V565.477C724.233 565.477 731.066 562.951 736.54 557.824L716.031 535.929ZM759.239 629.789L752.145 643.005L752.19 643.029L752.234 643.053L759.239 629.789ZM745.956 616.554L732.722 623.616L732.746 623.661L732.77 623.705L745.956 616.554ZM746.004 575.584L759.207 582.705L759.207 582.705L746.004 575.584ZM759.19 562.106L766.576 575.162L766.576 575.162L759.19 562.106ZM794.613 559.917L799.978 545.909L799.978 545.909L794.613 559.917ZM806.339 567.556L795.577 578.004L795.603 578.031L795.628 578.057L806.339 567.556ZM813.833 579.623L799.764 584.826L799.764 584.826L813.833 579.623ZM816.46 601.859V616.859H831.46V601.859H816.46ZM749.702 601.859H734.702V616.859H749.702V601.859ZM749.702 587.067V572.067H734.702V587.067H749.702ZM791.742 587.067V602.067H806.971L806.74 586.84L791.742 587.067ZM790.088 581.423L777.382 589.395L777.474 589.542L777.569 589.686L790.088 581.423ZM785.855 577.579L778.758 590.794L778.903 590.872L779.049 590.947L785.855 577.579ZM773.885 577.579L780.593 590.996L780.688 590.948L780.783 590.899L773.885 577.579ZM769.506 581.374L757.102 572.94L757.044 573.025L756.987 573.112L769.506 581.374ZM767.803 587.067L752.809 586.62L752.803 586.844V587.067H767.803ZM769.311 609.45L756.082 616.52L756.082 616.52L769.311 609.45ZM773.642 613.878L766.224 626.915L766.224 626.915L773.642 613.878ZM785.514 614.705L780.771 600.475L780.725 600.49L780.68 600.505L785.514 614.705ZM789.504 612.467L799.428 623.714L799.52 623.633L799.61 623.551L789.504 612.467ZM791.937 608.866V593.866H781.514L777.879 603.635L791.937 608.866ZM816.46 608.866L831.266 611.272L834.094 593.866H816.46V608.866ZM810.475 622.393L822.023 631.966L822.043 631.942L822.063 631.918L810.475 622.393ZM797.97 631.248L803.571 645.163L803.594 645.154L803.616 645.145L797.97 631.248ZM779.87 619.362C773.796 619.362 769.43 618.207 766.244 616.525L752.234 643.053C760.596 647.468 769.984 649.362 779.87 649.362V619.362ZM766.333 616.572C763.176 614.878 760.863 612.578 759.141 609.402L732.77 623.705C737.276 632.013 743.818 638.536 752.145 643.005L766.333 616.572ZM759.189 609.491C757.504 606.334 756.333 601.964 756.333 595.826H726.333C726.333 605.777 728.244 615.225 732.722 623.616L759.189 609.491ZM756.333 595.826C756.333 590.151 757.465 585.934 759.207 582.705L732.802 568.464C728.315 576.783 726.333 586.06 726.333 595.826H756.333ZM759.207 582.705C760.988 579.402 763.374 576.973 766.576 575.162L751.805 549.05C743.654 553.662 737.249 560.219 732.802 568.464L759.207 582.705ZM766.576 575.162C769.618 573.441 773.677 572.289 779.286 572.289V542.289C769.454 542.289 760.116 544.349 751.805 549.05L766.576 575.162ZM779.286 572.289C783.372 572.289 786.627 572.92 789.248 573.924L799.978 545.909C793.451 543.409 786.488 542.289 779.286 542.289V572.289ZM789.248 573.924C791.893 574.937 793.931 576.309 795.577 578.004L817.102 557.107C812.26 552.121 806.48 548.399 799.978 545.909L789.248 573.924ZM795.628 578.057C797.264 579.725 798.679 581.893 799.764 584.826L827.901 574.419C825.483 567.881 821.903 562.004 817.051 557.055L795.628 578.057ZM799.764 584.826C800.802 587.632 801.46 591.165 801.46 595.631H831.46C831.46 588.224 830.367 581.085 827.901 574.419L799.764 584.826ZM801.46 595.631V601.859H831.46V595.631H801.46ZM816.46 586.859H749.702V616.859H816.46V586.859ZM764.702 601.859V587.067H734.702V601.859H764.702ZM749.702 602.067H791.742V572.067H749.702V602.067ZM806.74 586.84C806.669 582.141 805.411 577.41 802.607 573.16L777.569 589.686C777.274 589.239 777.051 588.75 776.91 588.27C776.772 587.8 776.746 587.453 776.744 587.295L806.74 586.84ZM802.794 573.451C800.276 569.438 796.799 566.319 792.66 564.212L779.049 590.947C778.813 590.826 778.498 590.626 778.167 590.326C777.835 590.025 777.572 589.698 777.382 589.395L802.794 573.451ZM792.952 564.364C788.756 562.111 784.269 561.168 779.87 561.168V591.168C779.935 591.168 779.831 591.174 779.602 591.121C779.366 591.065 779.07 590.962 778.758 590.794L792.952 564.364ZM779.87 561.168C775.45 561.168 771.068 562.146 766.987 564.259L780.783 590.899C780.594 590.997 780.386 591.073 780.186 591.121C780.091 591.143 780.013 591.155 779.955 591.162C779.898 591.168 779.868 591.168 779.87 591.168V561.168ZM767.177 564.163C763.152 566.175 759.699 569.121 757.102 572.94L781.91 589.809C781.742 590.056 781.519 590.313 781.252 590.545C780.987 590.774 780.749 590.918 780.593 590.996L767.177 564.163ZM756.987 573.112C754.204 577.327 752.947 582.003 752.809 586.62L782.796 587.515C782.793 587.608 782.773 587.895 782.648 588.313C782.52 588.742 782.313 589.201 782.025 589.637L756.987 573.112ZM752.803 587.067V603.027H782.803V587.067H752.803ZM752.803 603.027C752.803 607.581 753.775 612.203 756.082 616.52L782.54 602.379C782.67 602.622 782.745 602.845 782.783 603.004C782.818 603.154 782.803 603.177 782.803 603.027H752.803ZM756.082 616.52C758.443 620.938 761.919 624.466 766.224 626.915L781.06 600.84C781.275 600.963 781.569 601.17 781.872 601.48C782.175 601.79 782.396 602.11 782.54 602.379L756.082 616.52ZM766.224 626.915C770.829 629.535 775.783 630.483 780.454 630.483V600.483C780.124 600.483 780.06 600.45 780.197 600.482C780.347 600.517 780.663 600.615 781.06 600.84L766.224 626.915ZM780.454 630.483C783.708 630.483 787.055 630.025 790.348 628.905L780.68 600.505C780.797 600.465 780.852 600.459 780.825 600.463C780.795 600.468 780.677 600.483 780.454 600.483V630.483ZM790.257 628.935C793.503 627.853 796.65 626.165 799.428 623.714L779.58 601.219C780.152 600.714 780.64 600.518 780.771 600.475L790.257 628.935ZM799.61 623.551C802.472 620.941 804.641 617.736 805.995 614.097L777.879 603.635C778.195 602.785 778.741 601.981 779.398 601.382L799.61 623.551ZM791.937 623.866H816.46V593.866H791.937V623.866ZM801.654 606.46C801.209 609.201 800.248 611.213 798.888 612.867L822.063 631.918C826.996 625.917 830.025 618.912 831.266 611.272L801.654 606.46ZM798.928 612.819C797.566 614.462 795.537 616.046 792.325 617.351L803.616 645.145C810.784 642.233 817.092 637.914 822.023 631.966L798.928 612.819ZM792.369 617.333C789.367 618.542 785.31 619.362 779.87 619.362V649.362C788.248 649.362 796.259 648.107 803.571 645.163L792.369 617.333ZM842.601 629.545L835.254 642.623L835.282 642.639L835.311 642.654L842.601 629.545ZM829.318 616.019L816.068 623.05L816.076 623.066L816.085 623.081L829.318 616.019ZM829.318 575.682L842.551 582.744L842.559 582.729L842.568 582.713L829.318 575.682ZM842.601 562.155L849.892 575.264L849.92 575.248L849.948 575.232L842.601 562.155ZM882.452 561.279L875.776 574.712L875.825 574.736L875.874 574.76L882.452 561.279ZM894.957 572.47L882.155 580.288L882.167 580.308L882.179 580.327L894.957 572.47ZM899.433 589.403V604.403H914.508L914.433 589.328L899.433 589.403ZM874.521 589.403L859.582 590.761L860.822 604.403H874.521V589.403ZM871.115 580.45L860 590.523L860.082 590.614L860.166 590.703L871.115 580.45ZM857.685 579.379L866.756 591.326L866.825 591.273L866.894 591.22L857.685 579.379ZM853.598 585.462L867.705 590.561L867.715 590.534L867.724 590.507L853.598 585.462ZM853.598 605.849L839.472 610.894L839.481 610.921L839.491 610.948L853.598 605.849ZM857.685 611.931L848.476 623.772L848.545 623.825L848.615 623.878L857.685 611.931ZM869.071 612.564L876.748 625.45L876.848 625.391L876.948 625.329L869.071 612.564ZM872.769 608.477L859.547 601.393L859.524 601.437L859.5 601.481L872.769 608.477ZM874.521 601.859V586.859H860.604L859.563 600.737L874.521 601.859ZM899.433 601.859L914.432 602.081L914.657 586.859H899.433V601.859ZM894.908 619.084L907.771 626.801L907.782 626.783L907.793 626.764L894.908 619.084ZM882.501 630.372L875.825 616.94L875.809 616.948L875.792 616.956L882.501 630.372ZM863.427 619.362C857.294 619.362 852.983 618.155 849.892 616.436L835.311 642.654C843.768 647.358 853.341 649.362 863.427 649.362V619.362ZM849.948 616.468C846.639 614.608 844.268 612.173 842.551 608.956L816.085 623.081C820.531 631.413 827.016 637.995 835.254 642.623L849.948 616.468ZM842.568 608.987C840.811 605.677 839.695 601.434 839.695 595.826H809.695C809.695 605.528 811.661 614.747 816.068 623.05L842.568 608.987ZM839.695 595.826C839.695 590.215 840.812 586.003 842.551 582.744L816.085 568.619C811.661 576.908 809.695 586.126 809.695 595.826H839.695ZM842.568 582.713C844.284 579.479 846.636 577.075 849.892 575.264L835.311 549.046C827.019 553.658 820.515 560.271 816.068 568.65L842.568 582.713ZM849.948 575.232C853.027 573.503 857.317 572.289 863.427 572.289V542.289C853.317 542.289 843.724 544.319 835.254 549.077L849.948 575.232ZM863.427 572.289C868.957 572.289 872.915 573.29 875.776 574.712L889.127 547.846C881.284 543.948 872.559 542.289 863.427 542.289V572.289ZM875.874 574.76C878.843 576.208 880.783 578.042 882.155 580.288L907.758 564.652C903.226 557.232 896.831 551.605 889.03 547.798L875.874 574.76ZM882.179 580.327C883.485 582.45 884.413 585.316 884.433 589.478L914.433 589.328C914.389 580.515 912.333 572.092 907.735 564.613L882.179 580.327ZM899.433 574.403H874.521V604.403H899.433V574.403ZM889.459 588.045C888.92 582.12 887.029 575.499 882.063 570.197L860.166 590.703C859.9 590.419 859.709 590.152 859.578 589.937C859.45 589.726 859.394 589.586 859.382 589.554C859.371 589.525 859.401 589.599 859.445 589.802C859.489 590.006 859.542 590.319 859.582 590.761L889.459 588.045ZM882.229 570.377C877.302 564.94 870.724 562.336 863.816 562.336V592.336C863.544 592.336 862.861 592.282 861.992 591.911C861.101 591.531 860.425 590.992 860 590.523L882.229 570.377ZM863.816 562.336C858.333 562.336 853.005 564.017 848.476 567.539L866.894 591.22C866.469 591.551 865.915 591.864 865.275 592.077C864.644 592.287 864.125 592.336 863.816 592.336V562.336ZM848.615 567.433C843.916 571 841.121 575.8 839.472 580.417L867.724 590.507C868.021 589.674 867.951 590.419 866.756 591.326L848.615 567.433ZM839.491 580.363C837.733 585.227 837.138 590.487 837.138 595.631H867.138C867.138 592.601 867.517 591.081 867.705 590.561L839.491 580.363ZM837.138 595.631C837.138 600.785 837.736 606.033 839.472 610.894L867.724 600.804C867.514 600.216 867.138 598.651 867.138 595.631H837.138ZM839.491 610.948C841.152 615.543 843.925 620.232 848.476 623.772L866.894 600.091C867.396 600.482 867.681 600.846 867.8 601.023C867.907 601.183 867.844 601.136 867.705 600.75L839.491 610.948ZM848.615 623.878C853.143 627.316 858.421 628.926 863.816 628.926V598.926C864.088 598.926 864.572 598.968 865.173 599.164C865.784 599.363 866.327 599.659 866.756 599.985L848.615 623.878ZM863.816 628.926C868.179 628.926 872.642 627.897 876.748 625.45L861.394 599.677C861.876 599.39 862.378 599.188 862.849 599.066C863.312 598.946 863.653 598.926 863.816 598.926V628.926ZM876.948 625.329C881.029 622.811 884.008 619.322 886.038 615.473L859.5 601.481C859.558 601.371 859.714 601.106 860.016 600.773C860.324 600.432 860.722 600.09 861.194 599.798L876.948 625.329ZM885.991 615.56C888.176 611.482 889.167 607.133 889.479 602.981L859.563 600.737C859.485 601.776 859.309 601.838 859.547 601.393L885.991 615.56ZM874.521 616.859H899.433V586.859H874.521V616.859ZM884.435 601.638C884.37 606.007 883.4 609.094 882.023 611.404L907.793 626.764C912.255 619.278 914.302 610.882 914.432 602.081L884.435 601.638ZM882.046 611.367C880.681 613.642 878.755 615.484 875.825 616.94L889.176 643.805C896.951 639.941 903.297 634.258 907.771 626.801L882.046 611.367ZM875.792 616.956C873 618.352 869.049 619.362 863.427 619.362V649.362C872.597 649.362 881.361 647.713 889.209 643.789L875.792 616.956ZM955.085 558.262H970.085V543.262H955.085V558.262ZM955.085 577.725V592.725H970.085V577.725H955.085ZM905.844 577.725H890.844V592.725H905.844V577.725ZM905.844 558.262V543.262H890.844V558.262H905.844ZM915.381 540.356V525.356H900.381V540.356H915.381ZM942.24 540.356H957.24V525.356H942.24V540.356ZM942.775 611.591L929.359 618.299L929.422 618.425L929.487 618.551L942.775 611.591ZM944.429 613.148L937.957 626.68L938.201 626.796L938.448 626.904L944.429 613.148ZM950.122 613.342L947.515 598.571L947.477 598.577L947.439 598.584L950.122 613.342ZM952.555 612.856L967.246 609.827L964.088 594.511L948.917 598.304L952.555 612.856ZM956.448 631.735L960.722 646.113L973.919 642.19L971.139 628.706L956.448 631.735ZM951.29 633.049L947.902 618.436L947.878 618.442L947.854 618.447L951.29 633.049ZM943.407 634.07L944.196 649.05L944.204 649.049L943.407 634.07ZM927.886 632.173L922.465 646.159L922.512 646.177L922.559 646.195L927.886 632.173ZM918.446 624.534L905.626 632.321L905.626 632.321L918.446 624.534ZM915.381 611.493L930.38 611.68L930.381 611.587V611.493H915.381ZM940.085 558.262V577.725H970.085V558.262H940.085ZM955.085 562.725H905.844V592.725H955.085V562.725ZM920.844 577.725V558.262H890.844V577.725H920.844ZM905.844 573.262H955.085V543.262H905.844V573.262ZM915.381 555.356H942.24V525.356H915.381V555.356ZM927.24 540.356V608.963H957.24V540.356H927.24ZM927.24 608.963C927.24 611.654 927.695 614.972 929.359 618.299L956.191 604.883C957.141 606.782 957.24 608.348 957.24 608.963H927.24ZM929.487 618.551C931.463 622.323 934.524 625.038 937.957 626.68L950.901 599.616C952.843 600.544 954.8 602.221 956.062 604.631L929.487 618.551ZM938.448 626.904C941.716 628.324 944.901 628.634 947.3 628.634V598.634C947.393 598.634 947.717 598.64 948.213 598.724C948.708 598.808 949.482 598.988 950.41 599.392L938.448 626.904ZM947.3 628.634C949.256 628.634 951.129 628.405 952.805 628.1L947.439 598.584C947.227 598.623 947.107 598.637 947.07 598.641C947.054 598.643 947.064 598.641 947.101 598.639C947.137 598.637 947.204 598.634 947.3 598.634V628.634ZM952.729 628.114C953.89 627.909 955.134 627.673 956.193 627.408L948.917 598.304C948.977 598.289 948.899 598.309 948.616 598.366C948.353 598.419 947.991 598.487 947.515 598.571L952.729 628.114ZM937.864 615.885L941.757 634.764L971.139 628.706L967.246 609.827L937.864 615.885ZM952.173 617.357C951.413 617.583 950.043 617.94 947.902 618.436L954.678 647.661C957.013 647.12 959.082 646.601 960.722 646.113L952.173 617.357ZM947.854 618.447C946.754 618.706 945.055 618.962 942.611 619.092L944.204 649.049C947.858 648.855 951.414 648.429 954.726 647.65L947.854 618.447ZM942.619 619.091C937.799 619.345 934.857 618.775 933.212 618.15L922.559 646.195C929.284 648.749 936.689 649.445 944.196 649.05L942.619 619.091ZM933.307 618.187C931.862 617.627 931.477 617.093 931.266 616.746L905.626 632.321C909.632 638.916 915.541 643.475 922.465 646.159L933.307 618.187ZM931.266 616.746C930.979 616.274 930.34 614.885 930.38 611.68L900.382 611.307C900.292 618.547 901.696 625.851 905.626 632.321L931.266 616.746ZM930.381 611.493V540.356H900.381V611.493H930.381ZM1033.56 582.591V597.591H1049.18L1048.54 581.977L1033.56 582.591ZM1008.84 582.591L993.894 583.863L995.062 597.591H1008.84V582.591ZM1007.23 578.65L1018.65 568.915L1018.65 568.915L1007.23 578.65ZM1003.58 576.119L997.75 589.938L997.933 590.016L998.119 590.088L1003.58 576.119ZM992.783 576.46L985.97 563.096L985.97 563.096L992.783 576.46ZM990.35 580.061L1005.34 580.502L1005.35 580.125L1005.35 579.748L990.35 580.061ZM991.761 583.126L981.335 593.911L981.424 593.996L981.513 594.08L991.761 583.126ZM997.551 585.316L994.868 600.074L994.884 600.077L994.901 600.08L997.551 585.316ZM1012.73 588.041L1015.42 573.283L1015.4 573.28L1015.38 573.276L1012.73 588.041ZM1029.81 595.096L1019.86 606.318L1019.91 606.363L1019.96 606.409L1029.81 595.096ZM1035.5 608.282L1050.5 608.373L1050.5 608.284L1050.5 608.194L1035.5 608.282ZM1030.74 622.149L1019.03 612.767L1019.03 612.773L1019.02 612.779L1030.74 622.149ZM1017.94 631.2L1023.41 645.167L1023.43 645.158L1023.45 645.15L1017.94 631.2ZM972.687 627.356L963.865 639.487L963.879 639.497L963.894 639.508L972.687 627.356ZM961.934 608.866V593.866H945.401L947.005 610.321L961.934 608.866ZM988.598 608.866L1003.43 606.631L1001.51 593.866H988.598V608.866ZM992.101 614.364L983.876 626.908L983.995 626.986L984.115 627.061L992.101 614.364ZM1005.77 614.997L998.854 601.688L998.799 601.717L998.743 601.747L1005.77 614.997ZM1008.26 611.396L1023.25 611.709L1023.26 611.382L1023.25 611.055L1008.26 611.396ZM1006.11 607.99L998.219 620.744L998.286 620.785L998.353 620.826L1006.11 607.99ZM999.692 605.946L1002.32 591.178L1002.31 591.176L1002.3 591.175L999.692 605.946ZM986.457 603.611L989.064 588.839L989.05 588.837L989.035 588.834L986.457 603.611ZM969.33 596.02L979.844 585.323L979.844 585.323L969.33 596.02ZM963.685 581.618L978.685 581.701L978.686 581.612L978.685 581.524L963.685 581.618ZM967.773 568.432L955.875 559.296L955.869 559.304L955.863 559.312L967.773 568.432ZM979.694 560.16L984.834 574.252L984.859 574.243L984.883 574.233L979.694 560.16ZM1023.68 564.004L1014.93 576.184L1014.94 576.195L1014.96 576.205L1023.68 564.004ZM1033.56 567.591H1008.84V597.591H1033.56V567.591ZM1023.79 581.319C1023.41 576.858 1021.74 572.538 1018.65 568.915L995.821 588.384C995.276 587.745 994.799 586.979 994.449 586.122C994.103 585.272 993.947 584.49 993.894 583.863L1023.79 581.319ZM1018.65 568.915C1015.94 565.741 1012.6 563.538 1009.05 562.151L998.119 590.088C997.557 589.868 996.648 589.353 995.821 588.384L1018.65 568.915ZM1009.42 562.301C1005.89 560.812 1002.26 560.195 998.719 560.195V590.195C998.751 590.195 998.355 590.194 997.75 589.938L1009.42 562.301ZM998.719 560.195C994.606 560.195 990.181 560.95 985.97 563.096L999.595 589.824C998.693 590.284 998.226 590.195 998.719 590.195V560.195ZM985.97 563.096C983.503 564.354 980.678 566.379 978.505 569.595C976.231 572.96 975.277 576.741 975.353 580.373L1005.35 579.748C1005.39 581.823 1004.83 584.226 1003.36 586.391C1002 588.406 1000.41 589.41 999.595 589.824L985.97 563.096ZM975.356 579.62C975.172 585.872 978.07 590.755 981.335 593.911L1002.19 572.341C1002.77 572.908 1003.62 573.898 1004.3 575.382C1005.02 576.931 1005.4 578.694 1005.34 580.502L975.356 579.62ZM981.513 594.08C985.928 598.21 991.697 599.497 994.868 600.074L1000.23 570.558C999.372 570.401 999.119 570.292 999.268 570.349C999.361 570.384 999.667 570.505 1000.11 570.755C1000.54 571.002 1001.23 571.448 1002.01 572.172L981.513 594.08ZM994.901 600.08L1010.08 602.805L1015.38 573.276L1000.2 570.552L994.901 600.08ZM1010.04 602.798C1016.38 603.953 1019.03 605.58 1019.86 606.318L1039.76 583.874C1033.14 577.995 1024.39 574.918 1015.42 573.283L1010.04 602.798ZM1019.96 606.409C1020.11 606.542 1020.19 606.631 1020.21 606.669C1020.24 606.705 1020.26 606.74 1020.28 606.795C1020.32 606.883 1020.5 607.325 1020.5 608.37L1050.5 608.194C1050.45 598.88 1047.04 590.205 1039.66 583.783L1019.96 606.409ZM1020.5 608.191C1020.49 610.339 1019.94 611.638 1019.03 612.767L1042.44 631.532C1047.83 624.811 1050.45 616.864 1050.5 608.373L1020.5 608.191ZM1019.02 612.779C1017.8 614.31 1015.83 615.906 1012.43 617.25L1023.45 645.15C1030.89 642.212 1037.45 637.774 1042.45 631.52L1019.02 612.779ZM1012.47 617.232C1009.13 618.54 1004.89 619.362 999.497 619.362V649.362C1007.92 649.362 1015.98 648.077 1023.41 645.167L1012.47 617.232ZM999.497 619.362C989.92 619.362 984.485 617.377 981.481 615.204L963.894 639.508C973.8 646.676 986.238 649.362 999.497 649.362V619.362ZM981.51 615.225C978.426 612.982 977.178 610.643 976.863 607.411L947.005 610.321C948.182 622.4 954.102 632.387 963.865 639.487L981.51 615.225ZM961.934 623.866H988.598V593.866H961.934V623.866ZM973.766 611.101C974.749 617.63 978.28 623.238 983.876 626.908L1000.33 601.821C1000.95 602.232 1001.74 602.928 1002.39 603.956C1003.04 604.981 1003.33 605.955 1003.43 606.631L973.766 611.101ZM984.115 627.061C989.109 630.203 994.607 631.262 999.692 631.262V601.262C999.193 601.262 999.04 601.209 999.145 601.235C999.269 601.266 999.627 601.377 1000.09 601.667L984.115 627.061ZM999.692 631.262C1003.75 631.262 1008.4 630.585 1012.8 628.247L998.743 601.747C999.372 601.413 999.838 601.295 1000.01 601.26C1000.17 601.227 1000.09 601.262 999.692 601.262V631.262ZM1012.69 628.305C1018.17 625.46 1023.08 619.805 1023.25 611.709L993.259 611.084C993.299 609.139 993.893 606.935 995.26 604.952C996.547 603.084 998.032 602.116 998.854 601.688L1012.69 628.305ZM1023.25 611.055C1023.08 603.699 1018.93 598.209 1013.88 595.154L998.353 620.826C997.474 620.294 996.125 619.252 994.997 617.457C993.818 615.582 993.301 613.549 993.26 611.737L1023.25 611.055ZM1014.01 595.236C1010.19 592.874 1005.79 591.796 1002.32 591.178L997.066 620.715C998.068 620.893 998.661 621.052 998.939 621.141C999.069 621.182 999.066 621.188 998.961 621.142C998.861 621.098 998.594 620.976 998.219 620.744L1014.01 595.236ZM1002.3 591.175L989.064 588.839L983.85 618.383L997.085 620.718L1002.3 591.175ZM989.035 588.834C983.113 587.801 980.689 586.153 979.844 585.323L958.815 606.718C965.561 613.349 974.555 616.761 983.879 618.388L989.035 588.834ZM979.844 585.323C979.252 584.741 978.673 583.982 978.685 581.701L948.686 581.535C948.633 590.996 951.817 599.839 958.815 606.718L979.844 585.323ZM978.685 581.524C978.67 579.159 979.235 578.135 979.682 577.551L955.863 559.312C950.796 565.93 948.636 573.696 948.686 581.711L978.685 581.524ZM979.67 577.567C980.406 576.609 981.817 575.352 984.834 574.252L974.553 546.068C967.255 548.73 960.719 552.988 955.875 559.296L979.67 577.567ZM984.883 574.233C988.015 573.079 992.323 572.289 998.135 572.289V542.289C989.739 542.289 981.753 543.413 974.504 546.086L984.883 574.233ZM998.135 572.289C1007.04 572.289 1012.1 574.153 1014.93 576.184L1032.43 551.824C1022.8 544.901 1010.84 542.289 998.135 542.289V572.289ZM1014.96 576.205C1017.33 577.901 1018.43 579.754 1018.57 583.205L1048.54 581.977C1048.04 569.598 1042.55 559.059 1032.4 551.802L1014.96 576.205Z" fill="#213145" mask="url(#path-2-outside-1_9_188)"/>
</svg>
