<svg width="530" height="530" viewBox="0 0 530 530" fill="none" xmlns="http://www.w3.org/2000/svg">
<g clip-path="url(#clip0_100_170)">
<g filter="url(#filter0_ii_100_170)">
<path d="M425.923 0H103.38C46.2848 0 0 46.2848 0 103.38V425.923C0 483.018 46.2848 529.303 103.38 529.303H425.923C483.018 529.303 529.303 483.018 529.303 425.923V103.38C529.303 46.2848 483.018 0 425.923 0Z" fill="url(#paint0_linear_100_170)"/>
</g>
<g filter="url(#filter1_i_100_170)">
<path fill-rule="evenodd" clip-rule="evenodd" d="M308.757 147.666C313.71 143.588 321.497 143.589 326.451 147.666L326.689 147.867L452.864 257.133C457.802 261.41 457.879 268.303 453.094 272.662L452.864 272.867L326.689 382.133L326.451 382.334C321.418 386.477 313.458 386.41 308.52 382.133L265.473 344.855L222.427 382.133L222.19 382.334C217.157 386.477 209.198 386.41 204.259 382.133L78.0832 272.867L77.8518 272.662C73.1435 268.372 73.1435 261.628 77.8518 257.338L78.0832 257.132L204.259 147.866L204.495 147.666C209.448 143.588 217.237 143.588 222.19 147.666L222.427 147.867L265.472 185.144L308.52 147.866L308.757 147.666ZM123.504 265L213.343 342.8L238.221 321.255L182.345 272.867L182.113 272.662C177.404 268.372 177.405 261.628 182.113 257.338L182.345 257.132L238.221 208.744L213.343 187.2L123.504 265ZM292.725 208.745L348.602 257.133C353.54 261.41 353.618 268.303 348.833 272.662L348.602 272.867L292.725 321.254L317.605 342.8L407.444 265L317.605 187.2L292.725 208.745ZM227.765 265L265.474 297.655L303.183 265L265.474 232.343L227.765 265Z" fill="white"/>
</g>
</g>
<defs>
<filter id="filter0_ii_100_170" x="-8.27037" y="-8.27037" width="545.844" height="545.844" filterUnits="userSpaceOnUse" color-interpolation-filters="sRGB">
<feFlood flood-opacity="0" result="BackgroundImageFix"/>
<feBlend mode="normal" in="SourceGraphic" in2="BackgroundImageFix" result="shape"/>
<feColorMatrix in="SourceAlpha" type="matrix" values="0 0 0 0 0 0 0 0 0 0 0 0 0 0 0 0 0 0 127 0" result="hardAlpha"/>
<feOffset dx="-8.27037" dy="8.27037"/>
<feGaussianBlur stdDeviation="10.9582"/>
<feComposite in2="hardAlpha" operator="arithmetic" k2="-1" k3="1"/>
<feColorMatrix type="matrix" values="0 0 0 0 0.305 0 0 0 0 0.305 0 0 0 0 0.305 0 0 0 0.35 0"/>
<feBlend mode="normal" in2="shape" result="effect1_innerShadow_100_170"/>
<feColorMatrix in="SourceAlpha" type="matrix" values="0 0 0 0 0 0 0 0 0 0 0 0 0 0 0 0 0 0 127 0" result="hardAlpha"/>
<feOffset dx="8.27037" dy="-8.27037"/>
<feGaussianBlur stdDeviation="8.27037"/>
<feComposite in2="hardAlpha" operator="arithmetic" k2="-1" k3="1"/>
<feColorMatrix type="matrix" values="0 0 0 0 0.0316664 0 0 0 0 0.027972 0 0 0 0 0.027972 0 0 0 0.58 0"/>
<feBlend mode="normal" in2="effect1_innerShadow_100_170" result="effect2_innerShadow_100_170"/>
</filter>
<filter id="filter1_i_100_170" x="74.3206" y="144.607" width="382.305" height="252.784" filterUnits="userSpaceOnUse" color-interpolation-filters="sRGB">
<feFlood flood-opacity="0" result="BackgroundImageFix"/>
<feBlend mode="normal" in="SourceGraphic" in2="BackgroundImageFix" result="shape"/>
<feColorMatrix in="SourceAlpha" type="matrix" values="0 0 0 0 0 0 0 0 0 0 0 0 0 0 0 0 0 0 127 0" result="hardAlpha"/>
<feOffset dy="12"/>
<feGaussianBlur stdDeviation="6"/>
<feComposite in2="hardAlpha" operator="arithmetic" k2="-1" k3="1"/>
<feColorMatrix type="matrix" values="0 0 0 0 0 0 0 0 0 0 0 0 0 0 0 0 0 0 0.25 0"/>
<feBlend mode="normal" in2="shape" result="effect1_innerShadow_100_170"/>
</filter>
<linearGradient id="paint0_linear_100_170" x1="-49.6222" y1="605.804" x2="541.709" y2="-22.7435" gradientUnits="userSpaceOnUse">
<stop stop-color="#101010"/>
<stop offset="1" stop-color="#292929"/>
</linearGradient>
<clipPath id="clip0_100_170">
<rect width="530" height="530" fill="white"/>
</clipPath>
</defs>
</svg>
